<svg xmlns="http://www.w3.org/2000/svg" enable-background="new 0 0 28 28" viewBox="0 0 28 28" id="shazam"><ellipse cx="15.784" cy="14.192" fill="#FFAB66" rx="11.117" ry="11.692"></ellipse><path d="M14,26C7.383,26,2,20.617,2,14S7.383,2,14,2c6.617,0,12,5.383,12,12S20.617,26,14,26z M14,3C7.935,3,3,7.935,3,14s4.935,11,11,11c6.065,0,11-4.935,11-11S20.065,3,14,3z M15.961,22.484c-0.502,0-0.973-0.2-1.324-0.565c-0.699-0.736-0.672-1.9,0.056-2.598c0.022-0.021,1.962-1.88,2.981-3.008c0.397-0.439,0.596-1,0.561-1.577c-0.038-0.62-0.341-1.206-0.854-1.649c-0.65-0.562-1.961-0.667-2.742,0.036c-0.575,0.515-1.279,1.282-1.286,1.29c-0.688,0.746-1.85,0.797-2.593,0.113c-0.745-0.688-0.793-1.852-0.108-2.596c0.005-0.005,0.817-0.893,1.539-1.541c2.077-1.867,5.48-1.901,7.587-0.08l0,0c1.267,1.098,2.019,2.591,2.115,4.205c0.097,1.57-0.437,3.085-1.502,4.264c-0.894,0.988-2.336,2.398-3.117,3.151C16.88,22.305,16.432,22.484,15.961,22.484z M16.009,11.626c0.769,0,1.516,0.263,2.027,0.705c0.718,0.621,1.143,1.454,1.197,2.345c0.052,0.848-0.238,1.667-0.817,2.308c-1.056,1.169-3.027,3.057-3.042,3.07c-0.322,0.308-0.333,0.839-0.015,1.175c0.306,0.316,0.85,0.334,1.178,0.023c1.355-1.308,2.474-2.438,3.112-3.145c0.883-0.977,1.326-2.231,1.246-3.532c-0.081-1.344-0.71-2.59-1.771-3.51c-1.739-1.503-4.548-1.473-6.265,0.068c-0.684,0.614-1.461,1.463-1.469,1.472c-0.314,0.342-0.292,0.872,0.047,1.186c0.336,0.308,0.866,0.286,1.177-0.052l0,0c0,0,0.732-0.801,1.356-1.36C14.555,11.854,15.292,11.626,16.009,11.626z M11.961,19.039c-1.407,0-2.735-0.479-3.74-1.351c-1.265-1.093-2.017-2.585-2.116-4.203c-0.095-1.572,0.439-3.086,1.504-4.263l0,0c0.652-0.722,1.753-1.836,3.101-3.137c0.416-0.399,0.885-0.568,1.368-0.569c0.49,0.011,0.947,0.212,1.286,0.566c0.698,0.734,0.672,1.898-0.058,2.597c-0.022,0.021-1.957,1.875-2.981,3.007c-0.396,0.438-0.595,0.999-0.561,1.576c0.039,0.62,0.342,1.207,0.854,1.651c0.648,0.562,1.96,0.666,2.744-0.036c0.57-0.515,1.279-1.284,1.286-1.292c0.333-0.363,0.785-0.573,1.274-0.594c0.494-0.028,0.958,0.152,1.318,0.485c0.743,0.684,0.792,1.847,0.109,2.592c-0.761,0.813-1.253,1.282-1.541,1.541C14.782,18.531,13.416,19.039,11.961,19.039z M12.038,6.517c-0.214,0-0.417,0.081-0.573,0.23c-1.392,1.344-2.477,2.44-3.114,3.146c0,0,0,0,0,0.001c-0.883,0.976-1.326,2.229-1.248,3.531c0.083,1.346,0.712,2.592,1.772,3.508c0.824,0.714,1.92,1.106,3.086,1.106c1.207,0,2.336-0.417,3.179-1.173c0.272-0.245,0.742-0.692,1.437-1.436c0.346-0.377,0.324-0.906-0.015-1.218c-0.165-0.151-0.376-0.229-0.599-0.221c-0.222,0.009-0.427,0.104-0.578,0.268c0,0.001-0.744,0.81-1.355,1.362c-1.213,1.086-3.081,0.901-4.067,0.048c-0.717-0.622-1.142-1.455-1.197-2.346c-0.051-0.849,0.239-1.668,0.816-2.309c1.066-1.177,3.028-3.055,3.042-3.068c0.322-0.309,0.333-0.839,0.015-1.174c-0.153-0.161-0.361-0.252-0.584-0.257C12.051,6.517,12.044,6.517,12.038,6.517z M7.98,9.558h0.01H7.98z"></path></svg>