<?xml version="1.0" encoding="UTF-8"?>
<!DOCTYPE svg PUBLIC "-//W3C//DTD SVG 1.1//EN" "http://www.w3.org/Graphics/SVG/1.1/DTD/svg11.dtd">
<svg xmlns="http://www.w3.org/2000/svg" version="1.1" width="251px" height="247px" style="shape-rendering:geometricPrecision; text-rendering:geometricPrecision; image-rendering:optimizeQuality; fill-rule:evenodd; clip-rule:evenodd" xmlns:xlink="http://www.w3.org/1999/xlink">
<g><path style="opacity:1" fill="#4b6fb0" d="M 105.5,0.5 C 105.5,1.5 105.5,2.5 105.5,3.5C 102.15,3.33499 98.8168,3.50166 95.5,4C 86.412,6.75262 77.412,9.58595 68.5,12.5C 79.9836,6.20542 92.3169,2.20542 105.5,0.5 Z"/></g>
<g><path style="opacity:1" fill="#0f84fd" d="M 161.5,9.5 C 163.593,10.0576 165.093,11.3909 166,13.5C 166.561,12.9781 167.228,12.6448 168,12.5C 173.679,14.2578 179.179,16.4244 184.5,19C 185.337,20.0113 185.67,21.1779 185.5,22.5C 188.455,23.1587 191.455,23.4921 194.5,23.5C 194.31,25.9589 195.31,27.6255 197.5,28.5C 195.712,28.2148 194.045,28.5481 192.5,29.5C 192.977,30.4776 193.643,31.3109 194.5,32C 193.833,32.3333 193.167,32.6667 192.5,33C 168.836,33.5 145.169,33.6666 121.5,33.5C 121.756,35.9124 120.756,37.5791 118.5,38.5C 115.299,37.0769 111.966,36.0769 108.5,35.5C 107.692,35.8076 107.025,36.3076 106.5,37C 109.533,38.8444 112.866,39.8444 116.5,40C 117.252,40.6708 117.586,41.5041 117.5,42.5C 113.171,40.4591 108.838,40.1258 104.5,41.5C 103.5,41.5 102.5,41.5 101.5,41.5C 100.5,41.5 99.5,41.5 98.5,41.5C 98.33,40.1779 98.6634,39.0113 99.5,38C 101.443,38.3052 103.443,38.3052 105.5,38C 104.833,37.3333 104.167,36.6667 103.5,36C 105.059,35.0201 106.726,34.1867 108.5,33.5C 108.167,33.1667 107.833,32.8333 107.5,32.5C 95.0567,33.5309 82.39,33.6976 69.5,33C 70.4589,30.3095 69.7922,29.9762 67.5,32C 67.8333,32.3333 68.1667,32.6667 68.5,33C 66.5,33.6667 64.5,33.6667 62.5,33C 63.5709,31.1745 62.9042,30.0079 60.5,29.5C 59.269,30.6507 59.269,31.8173 60.5,33C 58.5,33.3333 56.5,33.6667 54.5,34C 50.1704,35.9198 46.1704,38.2531 42.5,41C 41,43.8333 38.8333,46 36,47.5C 35.7978,49.2556 35.2978,50.9223 34.5,52.5C 33.914,52.2907 33.414,51.9574 33,51.5C 32.6667,52.8333 32.3333,54.1667 32,55.5C 29.2483,57.7457 27.0816,60.4123 25.5,63.5C 24.8333,63.8333 24.1667,64.1667 23.5,64.5C 23.3398,62.8008 23.5065,61.1341 24,59.5C 26.3994,57.1398 28.2327,54.4731 29.5,51.5C 31.0418,50.6993 32.7085,50.366 34.5,50.5C 34.3433,49.1266 34.51,47.7932 35,46.5C 42.8022,38.1865 51.3022,30.6865 60.5,24C 65.8133,23.5097 70.1467,21.1763 73.5,17C 75.6406,16.4275 77.6406,15.5942 79.5,14.5C 81.8724,13.2769 84.3724,12.2769 87,11.5C 87.2929,14.9542 88.6262,15.2876 91,12.5C 93.4433,13.5933 95.9433,14.5933 98.5,15.5C 99.3857,14.675 99.719,13.675 99.5,12.5C 96.8344,12.067 94.1677,11.567 91.5,11C 93.7619,10.3581 95.9285,9.52479 98,8.5C 100.278,9.26363 102.778,10.4303 105.5,12C 118.5,12.6667 131.5,12.6667 144.5,12C 145.337,10.9887 145.67,9.82207 145.5,8.5C 146.833,8.5 148.167,8.5 149.5,8.5C 149.553,12.3869 151.386,15.0536 155,16.5C 158.869,15.264 159.702,13.264 157.5,10.5C 158.689,9.57131 160.022,9.23798 161.5,9.5 Z"/></g>
<g><path style="opacity:1" fill="#3f74ca" d="M 109.5,-0.5 C 119.833,-0.5 130.167,-0.5 140.5,-0.5C 167.945,3.0569 191.612,14.3902 211.5,33.5C 210.833,34.8333 210.167,36.1667 209.5,37.5C 208.833,37.8333 208.167,38.1667 207.5,38.5C 207.12,35.2551 205.953,32.2551 204,29.5C 200.379,27.6024 197.212,25.1024 194.5,22C 181.826,15.4941 168.826,9.82746 155.5,5C 152.854,4.50258 150.187,4.33591 147.5,4.5C 147.03,3.30652 146.03,2.63985 144.5,2.5C 133.158,1.26665 121.825,1.43331 110.5,3C 109.944,3.38258 109.611,3.88258 109.5,4.5C 100.306,5.78371 91.3056,7.78371 82.5,10.5C 74.0125,14.2409 66.0125,18.7409 58.5,24C 56.4817,24.5046 54.4817,25.0046 52.5,25.5C 54.3603,24.0613 56.027,22.3947 57.5,20.5C 61.1667,17.8333 64.8333,15.1667 68.5,12.5C 77.412,9.58595 86.412,6.75262 95.5,4C 98.8168,3.50166 102.15,3.33499 105.5,3.5C 105.5,2.5 105.5,1.5 105.5,0.5C 107.099,0.767809 108.432,0.434475 109.5,-0.5 Z"/></g>
<g><path style="opacity:1" fill="#0e88fc" d="M 147.5,4.5 C 152.056,6.4724 156.722,8.13907 161.5,9.5C 160.022,9.23798 158.689,9.57131 157.5,10.5C 159.702,13.264 158.869,15.264 155,16.5C 151.386,15.0536 149.553,12.3869 149.5,8.5C 148.167,8.5 146.833,8.5 145.5,8.5C 145.67,9.82207 145.337,10.9887 144.5,12C 131.5,12.6667 118.5,12.6667 105.5,12C 102.778,10.4303 100.278,9.26363 98,8.5C 95.9285,9.52479 93.7619,10.3581 91.5,11C 94.1677,11.567 96.8344,12.067 99.5,12.5C 99.719,13.675 99.3857,14.675 98.5,15.5C 95.9433,14.5933 93.4433,13.5933 91,12.5C 88.6262,15.2876 87.2929,14.9542 87,11.5C 84.3724,12.2769 81.8724,13.2769 79.5,14.5C 80.5,13.1667 81.5,11.8333 82.5,10.5C 91.3056,7.78371 100.306,5.78371 109.5,4.5C 122.157,3.31075 134.824,3.31075 147.5,4.5 Z"/></g>
<g><path style="opacity:1" fill="#287dde" d="M 147.5,4.5 C 134.824,3.31075 122.157,3.31075 109.5,4.5C 109.611,3.88258 109.944,3.38258 110.5,3C 121.825,1.43331 133.158,1.26665 144.5,2.5C 146.03,2.63985 147.03,3.30652 147.5,4.5 Z"/></g>
<g><path style="opacity:1" fill="#1f80ed" d="M 147.5,4.5 C 150.187,4.33591 152.854,4.50258 155.5,5C 168.826,9.82746 181.826,15.4941 194.5,22C 197.212,25.1024 200.379,27.6024 204,29.5C 205.953,32.2551 207.12,35.2551 207.5,38.5C 207.167,38.5 206.833,38.5 206.5,38.5C 204.34,36.7936 203.174,34.4602 203,31.5C 200.942,30.7709 199.109,29.7709 197.5,28.5C 195.31,27.6255 194.31,25.9589 194.5,23.5C 191.455,23.4921 188.455,23.1587 185.5,22.5C 185.67,21.1779 185.337,20.0113 184.5,19C 179.179,16.4244 173.679,14.2578 168,12.5C 167.228,12.6448 166.561,12.9781 166,13.5C 165.093,11.3909 163.593,10.0576 161.5,9.5C 156.722,8.13907 152.056,6.4724 147.5,4.5 Z"/></g>
<g><path style="opacity:1" fill="#1080fd" d="M 197.5,28.5 C 199.109,29.7709 200.942,30.7709 203,31.5C 203.174,34.4602 204.34,36.7936 206.5,38.5C 204.738,39.2623 203.738,40.5956 203.5,42.5C 201.167,42.8333 199.833,44.1667 199.5,46.5C 197.495,48.334 195.328,50.0007 193,51.5C 186.683,58.3205 180.516,65.3205 174.5,72.5C 172.225,73.1112 170.559,74.4446 169.5,76.5C 169.5,75.1667 169.5,73.8333 169.5,72.5C 168.5,72.5 167.5,72.5 166.5,72.5C 166.813,69.7531 166.48,67.0865 165.5,64.5C 162.925,66.7126 160.092,67.0459 157,65.5C 155.351,67.9224 153.018,68.9224 150,68.5C 144.278,68.2588 138.778,67.2588 133.5,65.5C 129.681,66.1089 126.014,67.1089 122.5,68.5C 122.649,69.552 122.483,70.552 122,71.5C 120.294,70.6921 119.461,69.3588 119.5,67.5C 118.041,67.4326 116.708,67.7659 115.5,68.5C 115.733,66.9382 116.4,65.6049 117.5,64.5C 118.906,64.0269 119.573,63.0269 119.5,61.5C 120.931,61.1193 121.764,60.1193 122,58.5C 122.667,55.5 122.667,52.5 122,49.5C 121.252,47.249 119.752,45.9156 117.5,45.5C 117.5,44.5 117.5,43.5 117.5,42.5C 117.586,41.5041 117.252,40.6708 116.5,40C 112.866,39.8444 109.533,38.8444 106.5,37C 107.025,36.3076 107.692,35.8076 108.5,35.5C 111.966,36.0769 115.299,37.0769 118.5,38.5C 120.756,37.5791 121.756,35.9124 121.5,33.5C 145.169,33.6666 168.836,33.5 192.5,33C 193.167,32.6667 193.833,32.3333 194.5,32C 193.643,31.3109 192.977,30.4776 192.5,29.5C 194.045,28.5481 195.712,28.2148 197.5,28.5 Z"/></g>
<g><path style="opacity:1" fill="#1080fd" d="M 98.5,41.5 C 96.8452,42.9302 94.8452,43.7635 92.5,44C 93.6956,44.6543 93.6956,45.1543 92.5,45.5C 91.8333,45.1667 91.1667,44.8333 90.5,44.5C 89.5344,46.396 89.2011,48.396 89.5,50.5C 88.1266,50.3433 86.7932,50.51 85.5,51C 86.3366,52.0113 86.67,53.1779 86.5,54.5C 85.1667,54.5 83.8333,54.5 82.5,54.5C 82.5,56.1667 82.5,57.8333 82.5,59.5C 81.1779,59.67 80.0113,59.3366 79,58.5C 78.7165,60.8856 77.7165,61.5523 76,60.5C 75.2496,61.1258 74.4162,61.6258 73.5,62C 74.9295,63.8803 74.5962,65.3803 72.5,66.5C 71.8333,65.8333 71.1667,65.1667 70.5,64.5C 69.8333,66.5 69.1667,68.5 68.5,70.5C 67.914,70.2907 67.414,69.9574 67,69.5C 66.338,71.8127 65.838,74.146 65.5,76.5C 64.5,76.5 63.5,76.5 62.5,76.5C 62.3893,75.8826 62.056,75.3826 61.5,75C 62.7107,74.2131 63.7107,73.5464 64.5,73C 63.9681,70.9803 62.6348,70.147 60.5,70.5C 60.7373,69.209 60.404,68.209 59.5,67.5C 53.4751,66.2088 47.3084,66.2088 41,67.5C 38.9636,67.0464 37.1303,66.2131 35.5,65C 36.5,64.6667 37.5,64.3333 38.5,64C 34.0264,63.7339 29.6931,63.5672 25.5,63.5C 27.0816,60.4123 29.2483,57.7457 32,55.5C 32.3333,54.1667 32.6667,52.8333 33,51.5C 33.414,51.9574 33.914,52.2907 34.5,52.5C 35.2978,50.9223 35.7978,49.2556 36,47.5C 38.8333,46 41,43.8333 42.5,41C 46.1704,38.2531 50.1704,35.9198 54.5,34C 56.5,33.6667 58.5,33.3333 60.5,33C 59.269,31.8173 59.269,30.6507 60.5,29.5C 62.9042,30.0079 63.5709,31.1745 62.5,33C 64.5,33.6667 66.5,33.6667 68.5,33C 68.1667,32.6667 67.8333,32.3333 67.5,32C 69.7922,29.9762 70.4589,30.3095 69.5,33C 82.39,33.6976 95.0567,33.5309 107.5,32.5C 107.833,32.8333 108.167,33.1667 108.5,33.5C 106.726,34.1867 105.059,35.0201 103.5,36C 104.167,36.6667 104.833,37.3333 105.5,38C 103.443,38.3052 101.443,38.3052 99.5,38C 98.6634,39.0113 98.33,40.1779 98.5,41.5 Z"/></g>
<g><path style="opacity:1" fill="#239faf" d="M 209.5,37.5 C 210.791,37.2627 211.791,37.596 212.5,38.5C 211.209,38.2627 210.209,38.596 209.5,39.5C 208.5,40.1667 207.5,40.8333 206.5,41.5C 206.557,40.391 206.89,39.391 207.5,38.5C 208.167,38.1667 208.833,37.8333 209.5,37.5 Z"/></g>
<g><path style="opacity:1" fill="#348ca1" d="M 212.5,38.5 C 214.833,38.8333 216.167,40.1667 216.5,42.5C 214.833,41.5 213.5,40.1667 212.5,38.5 Z"/></g>
<g><path style="opacity:1" fill="#34bc8e" d="M 209.5,39.5 C 210.209,38.596 211.209,38.2627 212.5,38.5C 213.5,40.1667 214.833,41.5 216.5,42.5C 217.338,42.8417 217.672,43.5084 217.5,44.5C 215.167,43.1667 212.833,41.8333 210.5,40.5C 210.5,39.8333 210.167,39.5 209.5,39.5 Z"/></g>
<g><path style="opacity:1" fill="#4c70b0" d="M 57.5,20.5 C 56.027,22.3947 54.3603,24.0613 52.5,25.5C 49.3968,27.4233 46.3968,29.59 43.5,32C 37.5679,37.4766 32.2345,43.3099 27.5,49.5C 34.8583,37.1423 44.8583,27.4757 57.5,20.5 Z"/></g>
<g><path style="opacity:1" fill="#287be3" d="M 82.5,10.5 C 81.5,11.8333 80.5,13.1667 79.5,14.5C 77.6406,15.5942 75.6406,16.4275 73.5,17C 70.1467,21.1763 65.8133,23.5097 60.5,24C 51.3022,30.6865 42.8022,38.1865 35,46.5C 34.51,47.7932 34.3433,49.1266 34.5,50.5C 32.7085,50.366 31.0418,50.6993 29.5,51.5C 32.2016,48.6089 34.3682,45.2756 36,41.5C 41.3953,35.9362 46.8953,30.6029 52.5,25.5C 54.4817,25.0046 56.4817,24.5046 58.5,24C 66.0125,18.7409 74.0125,14.2409 82.5,10.5 Z"/></g>
<g><path style="opacity:1" fill="#4a8fd5" d="M 104.5,41.5 C 108.838,40.1258 113.171,40.4591 117.5,42.5C 117.5,43.5 117.5,44.5 117.5,45.5C 113.828,42.1717 109.495,40.8384 104.5,41.5 Z"/></g>
<g><path style="opacity:1" fill="#0d8ad8" d="M 206.5,38.5 C 206.833,38.5 207.167,38.5 207.5,38.5C 206.89,39.391 206.557,40.391 206.5,41.5C 205.391,41.5569 204.391,41.8902 203.5,42.5C 203.738,40.5956 204.738,39.2623 206.5,38.5 Z"/></g>
<g><path style="opacity:0.992" fill="#425e8b" d="M 68.5,12.5 C 64.8333,15.1667 61.1667,17.8333 57.5,20.5C 44.8583,27.4757 34.8583,37.1423 27.5,49.5C 24.8333,53.1667 22.1667,56.8333 19.5,60.5C 19.0923,57.4007 20.259,55.0674 23,53.5C 23.4828,52.552 23.6495,51.552 23.5,50.5C 34.8569,33.4731 49.8569,20.8064 68.5,12.5 Z"/></g>
<g><path style="opacity:1" fill="#fbfdfd" d="M 101.5,42.5 C 107.477,42.071 111.977,44.4044 115,49.5C 115.667,48.1667 116.333,48.1667 117,49.5C 118.457,52.366 118.79,55.366 118,58.5C 116.87,60.9329 115.704,63.2662 114.5,65.5C 110.912,69.428 107.245,73.428 103.5,77.5C 101.5,78.8333 99.8333,80.5 98.5,82.5C 97.1667,83.1667 96.1667,84.1667 95.5,85.5C 93.1667,87.1667 91.1667,89.1667 89.5,91.5C 88.8826,91.3893 88.3826,91.056 88,90.5C 86.7955,91.8586 85.2955,92.8586 83.5,93.5C 82.7542,94.7362 82.4208,96.0695 82.5,97.5C 81.325,97.281 80.325,97.6143 79.5,98.5C 77.7215,105.734 77.2215,113.067 78,120.5C 78.9344,121.858 79.7677,123.192 80.5,124.5C 81.1667,124.5 81.5,124.833 81.5,125.5C 81.427,127.027 82.0937,128.027 83.5,128.5C 84.604,130.389 85.9373,132.055 87.5,133.5C 88.8908,135.89 90.8908,137.557 93.5,138.5C 97.0184,140.966 101.018,141.966 105.5,141.5C 103.823,143.54 102.156,145.54 100.5,147.5C 100.5,147.833 100.5,148.167 100.5,148.5C 96.5,151.833 92.8333,155.5 89.5,159.5C 88.1667,160.167 87.1667,161.167 86.5,162.5C 85.391,162.557 84.391,162.89 83.5,163.5C 82.8333,163.5 82.1667,163.5 81.5,163.5C 81.1583,162.662 80.4916,162.328 79.5,162.5C 76.9804,160.737 74.6471,158.737 72.5,156.5C 69.0888,151.629 65.4221,146.962 61.5,142.5C 61.1391,138.614 59.6391,135.281 57,132.5C 56.1304,127.76 54.9637,123.094 53.5,118.5C 53.7704,113.653 53.7704,108.653 53.5,103.5C 53.5,102.833 53.5,102.167 53.5,101.5C 54.4959,101.586 55.3292,101.252 56,100.5C 56.3333,98.1667 56.6667,95.8333 57,93.5C 60.2877,87.8837 63.9544,82.5504 68,77.5C 68.4828,76.552 68.6495,75.552 68.5,74.5C 72.9822,71.8826 77.1489,68.5492 81,64.5C 81.4828,63.552 81.6495,62.552 81.5,61.5C 81.8333,60.8333 82.1667,60.1667 82.5,59.5C 84.1667,58.1667 85.8333,56.8333 87.5,55.5C 93.7545,52.9135 98.4211,48.5801 101.5,42.5 Z"/></g>
<g><path style="opacity:1" fill="#0d89d8" d="M 203.5,42.5 C 202.4,43.6049 201.733,44.9382 201.5,46.5C 201.167,46.5 200.833,46.5 200.5,46.5C 200.167,46.5 199.833,46.5 199.5,46.5C 199.833,44.1667 201.167,42.8333 203.5,42.5 Z"/></g>
<g><path style="opacity:1" fill="#12a2ad" d="M 206.5,41.5 C 205.167,43.1667 203.833,44.8333 202.5,46.5C 202.167,46.5 201.833,46.5 201.5,46.5C 201.733,44.9382 202.4,43.6049 203.5,42.5C 204.391,41.8902 205.391,41.5569 206.5,41.5 Z"/></g>
<g><path style="opacity:1" fill="#23cc8a" d="M 209.5,39.5 C 210.167,39.5 210.5,39.8333 210.5,40.5C 207.833,42.5 205.5,44.8333 203.5,47.5C 203.167,47.5 202.833,47.5 202.5,47.5C 202.5,47.1667 202.5,46.8333 202.5,46.5C 203.833,44.8333 205.167,43.1667 206.5,41.5C 207.5,40.8333 208.5,40.1667 209.5,39.5 Z"/></g>
<g><path style="opacity:1" fill="#34ae94" d="M 217.5,44.5 C 219.914,45.9108 221.581,47.9108 222.5,50.5C 220.833,49.1667 219.167,47.8333 217.5,46.5C 217.5,45.8333 217.5,45.1667 217.5,44.5 Z"/></g>
<g><path style="opacity:1" fill="#e4f9fd" d="M 101.5,42.5 C 101.5,42.1667 101.5,41.8333 101.5,41.5C 102.5,41.5 103.5,41.5 104.5,41.5C 109.495,40.8384 113.828,42.1717 117.5,45.5C 120.571,50.4651 121.238,55.7984 119.5,61.5C 118.094,61.9731 117.427,62.9731 117.5,64.5C 116.391,64.5569 115.391,64.8902 114.5,65.5C 115.704,63.2662 116.87,60.9329 118,58.5C 118.79,55.366 118.457,52.366 117,49.5C 116.333,48.1667 115.667,48.1667 115,49.5C 111.977,44.4044 107.477,42.071 101.5,42.5 Z"/></g>
<g><path style="opacity:1" fill="#dcf4fe" d="M 101.5,42.5 C 98.4211,48.5801 93.7545,52.9135 87.5,55.5C 91.5593,50.438 96.226,46.1047 101.5,42.5 Z"/></g>
<g><path style="opacity:1" fill="#3c86da" d="M 117.5,45.5 C 119.752,45.9156 121.252,47.249 122,49.5C 122.667,52.5 122.667,55.5 122,58.5C 121.764,60.1193 120.931,61.1193 119.5,61.5C 121.238,55.7984 120.571,50.4651 117.5,45.5 Z"/></g>
<g><path style="opacity:1" fill="#1cda62" d="M 210.5,40.5 C 212.833,41.8333 215.167,43.1667 217.5,44.5C 217.5,45.1667 217.5,45.8333 217.5,46.5C 219.715,49.0047 220.881,52.0047 221,55.5C 222.011,56.3366 223.178,56.67 224.5,56.5C 224.799,61.2137 222.799,62.8804 218.5,61.5C 217.713,62.2421 217.047,63.0754 216.5,64C 217.01,65.6278 217.01,67.4611 216.5,69.5C 216.326,71.6934 216.993,73.5267 218.5,75C 220.9,75.1858 223.234,75.6858 225.5,76.5C 222.407,76.9981 219.574,77.9981 217,79.5C 215.612,78.4464 214.112,78.2797 212.5,79C 211.48,80.5557 210.147,81.7224 208.5,82.5C 206.94,81.3929 205.44,81.3929 204,82.5C 200.888,81.4578 199.055,79.2911 198.5,76C 200.685,74.0709 202.351,74.5709 203.5,77.5C 204.5,77.1667 205.167,76.5 205.5,75.5C 203.565,74.4366 201.899,73.1033 200.5,71.5C 199.201,72.09 198.368,73.09 198,74.5C 196.989,73.6634 195.822,73.33 194.5,73.5C 194.401,70.3273 195.068,67.3273 196.5,64.5C 197.451,65.3256 198.451,65.4922 199.5,65C 199.167,64.6667 198.833,64.3333 198.5,64C 199.103,62.1746 199.77,60.3413 200.5,58.5C 201.192,59.0253 201.692,59.6919 202,60.5C 202.078,57.6285 201.578,54.7952 200.5,52C 201.315,50.3566 202.315,48.8566 203.5,47.5C 205.5,44.8333 207.833,42.5 210.5,40.5 Z"/></g>
<g><path style="opacity:1" fill="#1db99b" d="M 200.5,46.5 C 200.833,46.5 201.167,46.5 201.5,46.5C 201.833,46.5 202.167,46.5 202.5,46.5C 202.5,46.8333 202.5,47.1667 202.5,47.5C 198.5,50.8333 194.833,54.5 191.5,58.5C 191.167,58.5 190.833,58.5 190.5,58.5C 193.434,54.2272 196.767,50.2272 200.5,46.5 Z"/></g>
<g><path style="opacity:1" fill="#29cf74" d="M 217.5,46.5 C 219.167,47.8333 220.833,49.1667 222.5,50.5C 223.419,53.0892 225.086,55.0892 227.5,56.5C 227.833,57.8333 228.167,59.1667 228.5,60.5C 227.761,60.631 227.094,60.4643 226.5,60C 225.915,58.6976 225.249,57.531 224.5,56.5C 223.178,56.67 222.011,56.3366 221,55.5C 220.881,52.0047 219.715,49.0047 217.5,46.5 Z"/></g>
<g><path style="opacity:1" fill="#3383e2" d="M 98.5,41.5 C 99.5,41.5 100.5,41.5 101.5,41.5C 101.5,41.8333 101.5,42.1667 101.5,42.5C 96.226,46.1047 91.5593,50.438 87.5,55.5C 85.8333,56.8333 84.1667,58.1667 82.5,59.5C 82.5,57.8333 82.5,56.1667 82.5,54.5C 83.8333,54.5 85.1667,54.5 86.5,54.5C 86.67,53.1779 86.3366,52.0113 85.5,51C 86.7932,50.51 88.1266,50.3433 89.5,50.5C 89.2011,48.396 89.5344,46.396 90.5,44.5C 91.1667,44.8333 91.8333,45.1667 92.5,45.5C 93.6956,45.1543 93.6956,44.6543 92.5,44C 94.8452,43.7635 96.8452,42.9302 98.5,41.5 Z"/></g>
<g><path style="opacity:1" fill="#319997" d="M 222.5,50.5 C 224.914,51.9108 226.581,53.9108 227.5,56.5C 225.086,55.0892 223.419,53.0892 222.5,50.5 Z"/></g>
<g><path style="opacity:1" fill="#358aa4" d="M 227.5,56.5 C 230.093,58.0079 231.426,60.3413 231.5,63.5C 230.833,63.1667 230.167,62.8333 229.5,62.5C 229.672,61.5084 229.338,60.8417 228.5,60.5C 228.167,59.1667 227.833,57.8333 227.5,56.5 Z"/></g>
<g><path style="opacity:1" fill="#5495d7" d="M 119.5,61.5 C 119.573,63.0269 118.906,64.0269 117.5,64.5C 117.427,62.9731 118.094,61.9731 119.5,61.5 Z"/></g>
<g><path style="opacity:1" fill="#22d17f" d="M 190.5,58.5 C 190.833,58.5 191.167,58.5 191.5,58.5C 189.478,62.5216 186.478,65.5216 182.5,67.5C 184.5,65.1667 186.5,62.8333 188.5,60.5C 188.833,59.5 189.5,58.8333 190.5,58.5 Z"/></g>
<g><path style="opacity:1" fill="#1479fb" d="M 25.5,63.5 C 29.6931,63.5672 34.0264,63.7339 38.5,64C 37.5,64.3333 36.5,64.6667 35.5,65C 37.1303,66.2131 38.9636,67.0464 41,67.5C 47.3084,66.2088 53.4751,66.2088 59.5,67.5C 57.0882,67.6941 56.0882,69.0274 56.5,71.5C 49.4112,71.1156 42.4112,71.6156 35.5,73C 36.8333,73.6667 36.8333,74.3333 35.5,75C 32.5184,75.498 29.5184,75.6646 26.5,75.5C 26.5,76.8333 26.5,78.1667 26.5,79.5C 29.4808,79.544 29.8142,79.8773 27.5,80.5C 25.5971,79.6469 23.5971,79.6469 21.5,80.5C 21.762,79.0222 21.4287,77.6888 20.5,76.5C 19.914,76.7093 19.414,77.0426 19,77.5C 17.2813,81.3969 15.7813,85.3969 14.5,89.5C 13.5721,92.4535 12.7388,95.4535 12,98.5C 11.6174,99.056 11.1174,99.3893 10.5,99.5C 11.4664,88.9672 14.2998,78.9672 19,69.5C 20.517,67.7605 22.017,66.0938 23.5,64.5C 24.1667,64.1667 24.8333,63.8333 25.5,63.5 Z"/></g>
<g><path style="opacity:1" fill="#118dc1" d="M 199.5,46.5 C 199.833,46.5 200.167,46.5 200.5,46.5C 196.767,50.2272 193.434,54.2272 190.5,58.5C 189.5,58.8333 188.833,59.5 188.5,60.5C 184.229,63.1009 180.563,66.4342 177.5,70.5C 176.4,71.6049 175.733,72.9382 175.5,74.5C 175.167,74.5 174.833,74.5 174.5,74.5C 174.5,73.8333 174.5,73.1667 174.5,72.5C 180.516,65.3205 186.683,58.3205 193,51.5C 195.328,50.0007 197.495,48.334 199.5,46.5 Z"/></g>
<g><path style="opacity:1" fill="#2e7de5" d="M 82.5,59.5 C 82.1667,60.1667 81.8333,60.8333 81.5,61.5C 76.8875,65.4458 72.5542,69.7791 68.5,74.5C 65.9302,76.614 63.5968,78.9473 61.5,81.5C 61.2155,79.5853 61.5489,77.9187 62.5,76.5C 63.5,76.5 64.5,76.5 65.5,76.5C 65.838,74.146 66.338,71.8127 67,69.5C 67.414,69.9574 67.914,70.2907 68.5,70.5C 69.1667,68.5 69.8333,66.5 70.5,64.5C 71.1667,65.1667 71.8333,65.8333 72.5,66.5C 74.5962,65.3803 74.9295,63.8803 73.5,62C 74.4162,61.6258 75.2496,61.1258 76,60.5C 77.7165,61.5523 78.7165,60.8856 79,58.5C 80.0113,59.3366 81.1779,59.67 82.5,59.5 Z"/></g>
<g><path style="opacity:1" fill="#d7effd" d="M 81.5,61.5 C 81.6495,62.552 81.4828,63.552 81,64.5C 77.1489,68.5492 72.9822,71.8826 68.5,74.5C 72.5542,69.7791 76.8875,65.4458 81.5,61.5 Z"/></g>
<g><path style="opacity:1" fill="#36bd8a" d="M 229.5,62.5 C 230.167,62.8333 230.833,63.1667 231.5,63.5C 231.5,64.1667 231.5,64.8333 231.5,65.5C 230.094,65.0269 229.427,64.0269 229.5,62.5 Z"/></g>
<g><path style="opacity:1" fill="#1479fc" d="M 169.5,76.5 C 164.167,76.1667 158.833,75.8333 153.5,75.5C 149.689,74.3547 145.689,74.1881 141.5,75C 137.367,74.9064 133.701,75.7397 130.5,77.5C 126.473,78.6093 122.807,80.276 119.5,82.5C 117.5,82.5 115.5,82.5 113.5,82.5C 113.5,84.1667 113.5,85.8333 113.5,87.5C 111.146,87.838 108.813,88.338 106.5,89C 107.711,89.8928 107.711,90.7261 106.5,91.5C 103.402,90.2369 100.735,88.4036 98.5,86C 102.244,84.2593 105.41,81.7593 108,78.5C 108.904,75.7666 110.404,73.4333 112.5,71.5C 113.167,70.1667 114.167,69.1667 115.5,68.5C 116.708,67.7659 118.041,67.4326 119.5,67.5C 119.461,69.3588 120.294,70.6921 122,71.5C 122.483,70.552 122.649,69.552 122.5,68.5C 126.014,67.1089 129.681,66.1089 133.5,65.5C 138.778,67.2588 144.278,68.2588 150,68.5C 153.018,68.9224 155.351,67.9224 157,65.5C 160.092,67.0459 162.925,66.7126 165.5,64.5C 166.48,67.0865 166.813,69.7531 166.5,72.5C 167.5,72.5 168.5,72.5 169.5,72.5C 169.5,73.8333 169.5,75.1667 169.5,76.5 Z"/></g>
<g><path style="opacity:1" fill="#1ed963" d="M 202.5,47.5 C 202.833,47.5 203.167,47.5 203.5,47.5C 202.315,48.8566 201.315,50.3566 200.5,52C 201.578,54.7952 202.078,57.6285 202,60.5C 201.692,59.6919 201.192,59.0253 200.5,58.5C 199.77,60.3413 199.103,62.1746 198.5,64C 198.833,64.3333 199.167,64.6667 199.5,65C 198.451,65.4922 197.451,65.3256 196.5,64.5C 195.068,67.3273 194.401,70.3273 194.5,73.5C 195.822,73.33 196.989,73.6634 198,74.5C 198.368,73.09 199.201,72.09 200.5,71.5C 201.899,73.1033 203.565,74.4366 205.5,75.5C 205.167,76.5 204.5,77.1667 203.5,77.5C 202.351,74.5709 200.685,74.0709 198.5,76C 199.055,79.2911 200.888,81.4578 204,82.5C 205.44,81.3929 206.94,81.3929 208.5,82.5C 210.147,81.7224 211.48,80.5557 212.5,79C 214.112,78.2797 215.612,78.4464 217,79.5C 219.574,77.9981 222.407,76.9981 225.5,76.5C 223.234,75.6858 220.9,75.1858 218.5,75C 216.993,73.5267 216.326,71.6934 216.5,69.5C 217.01,67.4611 217.01,65.6278 216.5,64C 217.047,63.0754 217.713,62.2421 218.5,61.5C 222.799,62.8804 224.799,61.2137 224.5,56.5C 225.249,57.531 225.915,58.6976 226.5,60C 227.094,60.4643 227.761,60.631 228.5,60.5C 229.338,60.8417 229.672,61.5084 229.5,62.5C 229.427,64.0269 230.094,65.0269 231.5,65.5C 231.469,69.4111 232.802,72.7444 235.5,75.5C 237.712,81.5512 238.879,87.8845 239,94.5C 239.333,94.1667 239.667,93.8333 240,93.5C 240.549,95.7596 241.716,97.4262 243.5,98.5C 243.5,99.8333 243.5,101.167 243.5,102.5C 244.41,113.802 244.743,125.136 244.5,136.5C 244.5,139.167 244.5,141.833 244.5,144.5C 243.655,145.671 242.989,147.005 242.5,148.5C 241.656,150.843 240.656,153.176 239.5,155.5C 236.574,149.795 234.574,143.629 233.5,137C 233.833,135.833 234.167,134.667 234.5,133.5C 235.308,135.423 235.808,137.423 236,139.5C 239.15,141.161 240.65,140.161 240.5,136.5C 241.5,136.5 242.5,136.5 243.5,136.5C 241.908,131.695 240.908,126.695 240.5,121.5C 239.178,121.67 238.011,121.337 237,120.5C 237.497,118.802 237.33,117.135 236.5,115.5C 237.991,113.988 239.824,112.988 242,112.5C 242.839,109.86 242.339,107.527 240.5,105.5C 242.945,103.636 243.112,101.636 241,99.5C 239.228,103.76 237.728,108.093 236.5,112.5C 235.5,112.5 234.5,112.5 233.5,112.5C 233.162,109.843 233.829,107.51 235.5,105.5C 235.167,104.833 234.833,104.167 234.5,103.5C 237.45,99.9058 238.117,95.9058 236.5,91.5C 232.74,98.2122 231.24,97.5455 232,89.5C 233.011,88.6634 234.178,88.33 235.5,88.5C 235.225,82.7386 232.225,80.572 226.5,82C 223.971,83.062 221.304,83.8953 218.5,84.5C 221.027,85.2136 223.527,85.8803 226,86.5C 227.622,89.9869 228.455,93.6535 228.5,97.5C 227.022,97.238 225.689,97.5713 224.5,98.5C 225.833,100.833 227.167,103.167 228.5,105.5C 227.635,106.583 226.635,106.749 225.5,106C 224.023,103.555 222.19,101.388 220,99.5C 219.845,94.8813 218.678,90.548 216.5,86.5C 214.043,84.7751 211.377,84.2751 208.5,85C 209.056,85.3826 209.389,85.8826 209.5,86.5C 207.565,85.8505 205.565,85.5172 203.5,85.5C 198.838,82.2098 193.838,79.3765 188.5,77C 185.522,76.304 182.522,75.804 179.5,75.5C 179.167,75.5 178.833,75.5 178.5,75.5C 177.266,73.6017 177.599,71.935 179.5,70.5C 180.167,69.1667 181.167,68.1667 182.5,67.5C 186.478,65.5216 189.478,62.5216 191.5,58.5C 194.833,54.5 198.5,50.8333 202.5,47.5 Z"/></g>
<g><path style="opacity:1" fill="#1478fd" d="M 59.5,67.5 C 60.404,68.209 60.7373,69.209 60.5,70.5C 62.6348,70.147 63.9681,70.9803 64.5,73C 63.7107,73.5464 62.7107,74.2131 61.5,75C 62.056,75.3826 62.3893,75.8826 62.5,76.5C 61.5489,77.9187 61.2155,79.5853 61.5,81.5C 60.8333,82.5 60.1667,83.5 59.5,84.5C 57.6096,84.2965 56.1096,84.9632 55,86.5C 54.2629,90.8704 53.4296,95.2038 52.5,99.5C 52.0074,101.806 51.6741,104.139 51.5,106.5C 51.1667,106.5 50.8333,106.5 50.5,106.5C 51.4489,101.734 50.1155,97.9004 46.5,95C 47.8333,94 49.1667,93 50.5,92C 49.3595,91.2588 49.3595,90.4255 50.5,89.5C 46.5513,83.803 44.5513,84.4697 44.5,91.5C 36.9953,93.1103 29.662,92.7769 22.5,90.5C 21.2261,92.85 19.8927,92.6833 18.5,90C 17.2068,89.51 15.8734,89.3433 14.5,89.5C 15.7813,85.3969 17.2813,81.3969 19,77.5C 19.414,77.0426 19.914,76.7093 20.5,76.5C 21.4287,77.6888 21.762,79.0222 21.5,80.5C 23.5971,79.6469 25.5971,79.6469 27.5,80.5C 29.8142,79.8773 29.4808,79.544 26.5,79.5C 26.5,78.1667 26.5,76.8333 26.5,75.5C 29.5184,75.6646 32.5184,75.498 35.5,75C 36.8333,74.3333 36.8333,73.6667 35.5,73C 42.4112,71.6156 49.4112,71.1156 56.5,71.5C 56.0882,69.0274 57.0882,67.6941 59.5,67.5 Z"/></g>
<g><path style="opacity:1" fill="#1ab09d" d="M 188.5,60.5 C 186.5,62.8333 184.5,65.1667 182.5,67.5C 181.167,68.1667 180.167,69.1667 179.5,70.5C 178.833,70.5 178.167,70.5 177.5,70.5C 180.563,66.4342 184.229,63.1009 188.5,60.5 Z"/></g>
<g><path style="opacity:1" fill="#328d9f" d="M 231.5,63.5 C 233.408,64.4856 234.408,66.1523 234.5,68.5C 233.272,67.6935 232.272,66.6935 231.5,65.5C 231.5,64.8333 231.5,64.1667 231.5,63.5 Z"/></g>
<g><path style="opacity:1" fill="#30c186" d="M 231.5,65.5 C 232.272,66.6935 233.272,67.6935 234.5,68.5C 234.755,70.9674 235.755,72.9674 237.5,74.5C 237.5,75.1667 237.5,75.8333 237.5,76.5C 237.5,77.1667 237.5,77.8333 237.5,78.5C 236.833,77.5 236.167,76.5 235.5,75.5C 232.802,72.7444 231.469,69.4111 231.5,65.5 Z"/></g>
<g><path style="opacity:1" fill="#32bf87" d="M 177.5,70.5 C 178.167,70.5 178.833,70.5 179.5,70.5C 177.599,71.935 177.266,73.6017 178.5,75.5C 177.391,75.4431 176.391,75.1098 175.5,74.5C 175.733,72.9382 176.4,71.6049 177.5,70.5 Z"/></g>
<g><path style="opacity:1" fill="#508bd3" d="M 117.5,64.5 C 116.4,65.6049 115.733,66.9382 115.5,68.5C 114.167,69.1667 113.167,70.1667 112.5,71.5C 109.5,73.5 106.5,75.5 103.5,77.5C 107.245,73.428 110.912,69.428 114.5,65.5C 115.391,64.8902 116.391,64.5569 117.5,64.5 Z"/></g>
<g><path style="opacity:1" fill="#3388a1" d="M 234.5,68.5 C 236.245,70.0326 237.245,72.0326 237.5,74.5C 235.755,72.9674 234.755,70.9674 234.5,68.5 Z"/></g>
<g><path style="opacity:1" fill="#496dac" d="M 19.5,60.5 C 18.1403,63.6199 17.3069,66.9532 17,70.5C 14.7338,73.3338 12.9005,76.3338 11.5,79.5C 10.3843,84.2015 8.71768,88.5349 6.5,92.5C 7.65782,87.5868 8.82449,82.5868 10,77.5C 12.9603,73.6233 14.9603,69.2899 16,64.5C 17.4048,63.2695 18.5714,61.9361 19.5,60.5 Z"/></g>
<g><path style="opacity:1" fill="#2375e1" d="M 153.5,75.5 C 149.629,75.185 145.962,75.5184 142.5,76.5C 140.833,76.5 139.167,76.5 137.5,76.5C 135.097,76.448 132.764,76.7814 130.5,77.5C 133.701,75.7397 137.367,74.9064 141.5,75C 145.689,74.1881 149.689,74.3547 153.5,75.5 Z"/></g>
<g><path style="opacity:1" fill="#377cd8" d="M 174.5,72.5 C 174.5,73.1667 174.5,73.8333 174.5,74.5C 172.512,75.7445 170.512,77.0778 168.5,78.5C 167.5,78.5 166.5,78.5 165.5,78.5C 157.924,76.9349 150.258,76.2682 142.5,76.5C 145.962,75.5184 149.629,75.185 153.5,75.5C 158.833,75.8333 164.167,76.1667 169.5,76.5C 170.559,74.4446 172.225,73.1112 174.5,72.5 Z"/></g>
<g><path style="opacity:1" fill="#115529" d="M 174.5,75.5 C 174.5,75.1667 174.5,74.8333 174.5,74.5C 174.833,74.5 175.167,74.5 175.5,74.5C 176.391,75.1098 177.391,75.4431 178.5,75.5C 178.833,75.5 179.167,75.5 179.5,75.5C 181.5,76.5 183.5,77.5 185.5,78.5C 181.653,78.1056 177.986,77.1056 174.5,75.5 Z"/></g>
<g><path style="opacity:1" fill="#d9f3fc" d="M 137.5,76.5 C 139.167,76.5 140.833,76.5 142.5,76.5C 150.258,76.2682 157.924,76.9349 165.5,78.5C 166.167,79.1667 166.833,79.8333 167.5,80.5C 167.5,81.1667 167.167,81.5 166.5,81.5C 159.956,79.4914 153.122,78.4914 146,78.5C 139.841,79.3665 133.674,80.0332 127.5,80.5C 130.833,79.1667 134.167,77.8333 137.5,76.5 Z"/></g>
<g><path style="opacity:1" fill="#0f2242" d="M 174.5,74.5 C 174.5,74.8333 174.5,75.1667 174.5,75.5C 174.586,76.4959 174.252,77.3292 173.5,78C 171.548,78.3661 169.882,79.1995 168.5,80.5C 168.5,79.8333 168.5,79.1667 168.5,78.5C 170.512,77.0778 172.512,75.7445 174.5,74.5 Z"/></g>
<g><path style="opacity:1" fill="#f9fcfc" d="M 166.5,81.5 C 163.5,84.8333 160.5,88.1667 157.5,91.5C 157.167,91.5 156.833,91.5 156.5,91.5C 155.167,92.1667 154.167,93.1667 153.5,94.5C 150.118,97.2148 147.118,100.215 144.5,103.5C 143.508,103.328 142.842,103.662 142.5,104.5C 141.209,104.263 140.209,104.596 139.5,105.5C 136.509,105.166 134.176,106.166 132.5,108.5C 131.167,109.167 130.167,110.167 129.5,111.5C 126.911,112.419 124.911,114.086 123.5,116.5C 122.167,117.833 120.833,119.167 119.5,120.5C 117.167,122.167 115.167,124.167 113.5,126.5C 112.833,126.5 112.167,126.5 111.5,126.5C 106.485,126.959 101.819,125.959 97.5,123.5C 95.9263,122.016 94.593,120.349 93.5,118.5C 93.1505,114.258 93.8172,110.258 95.5,106.5C 96.3382,106.158 96.6716,105.492 96.5,104.5C 100.14,101.527 103.473,98.1938 106.5,94.5C 107.853,92.8173 109.52,91.4839 111.5,90.5C 113.749,89.9202 115.415,88.5869 116.5,86.5C 117.306,85.2719 118.306,84.2719 119.5,83.5C 122.167,82.5 124.833,81.5 127.5,80.5C 133.674,80.0332 139.841,79.3665 146,78.5C 153.122,78.4914 159.956,79.4914 166.5,81.5 Z"/></g>
<g><path style="opacity:1" fill="#5384b9" d="M 165.5,78.5 C 166.5,78.5 167.5,78.5 168.5,78.5C 168.5,79.1667 168.5,79.8333 168.5,80.5C 168.167,80.5 167.833,80.5 167.5,80.5C 166.833,79.8333 166.167,79.1667 165.5,78.5 Z"/></g>
<g><path style="opacity:1" fill="#3bb666" d="M 179.5,75.5 C 182.522,75.804 185.522,76.304 188.5,77C 193.838,79.3765 198.838,82.2098 203.5,85.5C 202.833,85.5 202.167,85.5 201.5,85.5C 200.791,84.596 199.791,84.2627 198.5,84.5C 195.912,82.3754 192.912,81.0421 189.5,80.5C 188.486,79.3263 187.153,78.6596 185.5,78.5C 183.5,77.5 181.5,76.5 179.5,75.5 Z"/></g>
<g><path style="opacity:1" fill="#32909a" d="M 237.5,76.5 C 238.906,76.9731 239.573,77.9731 239.5,79.5C 238.833,79.1667 238.167,78.8333 237.5,78.5C 237.5,77.8333 237.5,77.1667 237.5,76.5 Z"/></g>
<g><path style="opacity:1" fill="#043c13" d="M 185.5,78.5 C 187.153,78.6596 188.486,79.3263 189.5,80.5C 187.517,80.8432 186.183,80.1765 185.5,78.5 Z"/></g>
<g><path style="opacity:1" fill="#4081ce" d="M 137.5,76.5 C 134.167,77.8333 130.833,79.1667 127.5,80.5C 124.833,81.5 122.167,82.5 119.5,83.5C 119.5,83.1667 119.5,82.8333 119.5,82.5C 122.807,80.276 126.473,78.6093 130.5,77.5C 132.764,76.7814 135.097,76.448 137.5,76.5 Z"/></g>
<g><path style="opacity:1" fill="#588bd6" d="M 103.5,77.5 C 102.833,80.1667 101.167,81.8333 98.5,82.5C 99.8333,80.5 101.5,78.8333 103.5,77.5 Z"/></g>
<g><path style="opacity:1" fill="#1b1412" d="M 174.5,75.5 C 177.986,77.1056 181.653,78.1056 185.5,78.5C 186.183,80.1765 187.517,80.8432 189.5,80.5C 189.328,81.4916 189.662,82.1583 190.5,82.5C 194.389,84.7224 198.389,86.7224 202.5,88.5C 205.619,89.3173 208.619,90.3173 211.5,91.5C 213.169,95.3511 213.669,99.3511 213,103.5C 211.351,104.885 210.184,106.551 209.5,108.5C 203.792,109.31 198.792,107.81 194.5,104C 191.647,102.57 188.647,101.737 185.5,101.5C 180.164,97.657 174.164,95.3237 167.5,94.5C 164.761,91.9758 161.428,90.9758 157.5,91.5C 160.5,88.1667 163.5,84.8333 166.5,81.5C 167.167,81.5 167.5,81.1667 167.5,80.5C 167.833,80.5 168.167,80.5 168.5,80.5C 169.882,79.1995 171.548,78.3661 173.5,78C 174.252,77.3292 174.586,76.4959 174.5,75.5 Z"/></g>
<g><path style="opacity:1" fill="#042e0c" d="M 189.5,80.5 C 192.912,81.0421 195.912,82.3754 198.5,84.5C 195.833,83.8333 193.167,83.1667 190.5,82.5C 189.662,82.1583 189.328,81.4916 189.5,80.5 Z"/></g>
<g><path style="opacity:1" fill="#2378e5" d="M 119.5,82.5 C 119.5,82.8333 119.5,83.1667 119.5,83.5C 118.306,84.2719 117.306,85.2719 116.5,86.5C 115.391,86.5569 114.391,86.8902 113.5,87.5C 113.5,85.8333 113.5,84.1667 113.5,82.5C 115.5,82.5 117.5,82.5 119.5,82.5 Z"/></g>
<g><path style="opacity:1" fill="#121c0c" d="M 190.5,82.5 C 193.167,83.1667 195.833,83.8333 198.5,84.5C 199.791,84.2627 200.791,84.596 201.5,85.5C 202.11,86.391 202.443,87.391 202.5,88.5C 198.389,86.7224 194.389,84.7224 190.5,82.5 Z"/></g>
<g><path style="opacity:1" fill="#349f94" d="M 237.5,78.5 C 238.167,78.8333 238.833,79.1667 239.5,79.5C 240.939,81.588 241.606,83.9214 241.5,86.5C 239.229,84.3877 237.896,81.721 237.5,78.5 Z"/></g>
<g><path style="opacity:1" fill="#1574fe" d="M 50.5,106.5 C 49.2743,112.479 49.2743,118.479 50.5,124.5C 49.7321,123.737 49.2321,122.737 49,121.5C 48.6667,121.833 48.3333,122.167 48,122.5C 47.9974,119.284 46.8308,116.617 44.5,114.5C 43.6667,115.5 42.8333,116.5 42,117.5C 34.9448,116.035 27.7782,115.035 20.5,114.5C 16.7529,115.306 13.0862,116.306 9.5,117.5C 10.4128,111.559 10.7461,105.559 10.5,99.5C 11.1174,99.3893 11.6174,99.056 12,98.5C 12.7388,95.4535 13.5721,92.4535 14.5,89.5C 15.8734,89.3433 17.2068,89.51 18.5,90C 19.8927,92.6833 21.2261,92.85 22.5,90.5C 29.662,92.7769 36.9953,93.1103 44.5,91.5C 44.5513,84.4697 46.5513,83.803 50.5,89.5C 49.3595,90.4255 49.3595,91.2588 50.5,92C 49.1667,93 47.8333,94 46.5,95C 50.1155,97.9004 51.4489,101.734 50.5,106.5 Z"/></g>
<g><path style="opacity:1" fill="#37b665" d="M 203.5,85.5 C 205.565,85.5172 207.565,85.8505 209.5,86.5C 210.11,87.391 210.443,88.391 210.5,89.5C 207.669,88.9213 205.336,87.588 203.5,85.5 Z"/></g>
<g><path style="opacity:1" fill="#2a75e0" d="M 59.5,84.5 C 56.6662,89.1675 54.6662,94.1675 53.5,99.5C 53.1667,99.5 52.8333,99.5 52.5,99.5C 53.4296,95.2038 54.2629,90.8704 55,86.5C 56.1096,84.9632 57.6096,84.2965 59.5,84.5 Z"/></g>
<g><path style="opacity:1" fill="#28d072" d="M 235.5,75.5 C 236.167,76.5 236.833,77.5 237.5,78.5C 237.896,81.721 239.229,84.3877 241.5,86.5C 242.167,89.1667 242.833,91.8333 243.5,94.5C 243.5,95.8333 243.5,97.1667 243.5,98.5C 241.716,97.4262 240.549,95.7596 240,93.5C 239.667,93.8333 239.333,94.1667 239,94.5C 238.879,87.8845 237.712,81.5512 235.5,75.5 Z"/></g>
<g><path style="opacity:1" fill="#1e77f0" d="M 112.5,71.5 C 110.404,73.4333 108.904,75.7666 108,78.5C 105.41,81.7593 102.244,84.2593 98.5,86C 100.735,88.4036 103.402,90.2369 106.5,91.5C 107.711,90.7261 107.711,89.8928 106.5,89C 108.813,88.338 111.146,87.838 113.5,87.5C 112.833,88.5 112.167,89.5 111.5,90.5C 109.52,91.4839 107.853,92.8173 106.5,94.5C 105.041,94.4326 103.708,94.7659 102.5,95.5C 100.831,93.4911 99.1643,91.4911 97.5,89.5C 95.244,90.4209 94.244,92.0876 94.5,94.5C 93.1266,94.3433 91.7932,94.51 90.5,95C 89.2107,96.8022 87.5441,97.9688 85.5,98.5C 89.0843,94.317 92.4176,89.9836 95.5,85.5C 96.1667,84.1667 97.1667,83.1667 98.5,82.5C 101.167,81.8333 102.833,80.1667 103.5,77.5C 106.5,75.5 109.5,73.5 112.5,71.5 Z"/></g>
<g><path style="opacity:1" fill="#092d0e" d="M 201.5,85.5 C 202.167,85.5 202.833,85.5 203.5,85.5C 205.336,87.588 207.669,88.9213 210.5,89.5C 210.833,90.1667 211.167,90.8333 211.5,91.5C 208.619,90.3173 205.619,89.3173 202.5,88.5C 202.443,87.391 202.11,86.391 201.5,85.5 Z"/></g>
<g><path style="opacity:1" fill="#b5dbfa" d="M 116.5,86.5 C 115.415,88.5869 113.749,89.9202 111.5,90.5C 112.167,89.5 112.833,88.5 113.5,87.5C 114.391,86.8902 115.391,86.5569 116.5,86.5 Z"/></g>
<g><path style="opacity:1" fill="#33c266" d="M 210.5,89.5 C 212.262,89.3573 213.929,89.6906 215.5,90.5C 217.935,96.0637 218.101,101.73 216,107.5C 214.644,108.38 213.144,108.714 211.5,108.5C 215.09,104.487 216.257,99.8199 215,94.5C 213.961,93.2899 212.794,92.2899 211.5,91.5C 211.167,90.8333 210.833,90.1667 210.5,89.5 Z"/></g>
<g><path style="opacity:1" fill="#3f73cb" d="M 52.5,25.5 C 46.8953,30.6029 41.3953,35.9362 36,41.5C 34.3682,45.2756 32.2016,48.6089 29.5,51.5C 28.2327,54.4731 26.3994,57.1398 24,59.5C 23.5065,61.1341 23.3398,62.8008 23.5,64.5C 22.017,66.0938 20.517,67.7605 19,69.5C 14.2998,78.9672 11.4664,88.9672 10.5,99.5C 9.54885,100.919 9.21552,102.585 9.5,104.5C 8.17176,109.456 7.50509,114.789 7.5,120.5C 7.66667,125.833 7.83333,131.167 8,136.5C 8.19808,138.382 8.69808,140.048 9.5,141.5C 9.88232,148.362 11.2156,155.028 13.5,161.5C 12.7281,160.306 11.7281,159.306 10.5,158.5C 9.77765,157.449 8.77765,156.782 7.5,156.5C 5.45511,145.938 4.45511,135.272 4.5,124.5C 5.01278,113.97 5.67945,103.636 6.5,93.5C 6.5,93.1667 6.5,92.8333 6.5,92.5C 8.71768,88.5349 10.3843,84.2015 11.5,79.5C 12.9005,76.3338 14.7338,73.3338 17,70.5C 17.3069,66.9532 18.1403,63.6199 19.5,60.5C 22.1667,56.8333 24.8333,53.1667 27.5,49.5C 32.2345,43.3099 37.5679,37.4766 43.5,32C 46.3968,29.59 49.3968,27.4233 52.5,25.5 Z"/></g>
<g><path style="opacity:1" fill="#111e0f" d="M 156.5,91.5 C 156.833,91.5 157.167,91.5 157.5,91.5C 161.428,90.9758 164.761,91.9758 167.5,94.5C 166.167,94.5 164.833,94.5 163.5,94.5C 161.833,94.5 160.167,94.5 158.5,94.5C 157.449,93.7777 156.782,92.7777 156.5,91.5 Z"/></g>
<g><path style="opacity:1" fill="#51a472" d="M 156.5,91.5 C 156.782,92.7777 157.449,93.7777 158.5,94.5C 156.833,94.5 155.167,94.5 153.5,94.5C 154.167,93.1667 155.167,92.1667 156.5,91.5 Z"/></g>
<g><path style="opacity:1" fill="#4b83d2" d="M 95.5,85.5 C 92.4176,89.9836 89.0843,94.317 85.5,98.5C 84.8333,98.8333 84.1667,99.1667 83.5,99.5C 85.0908,96.5691 87.0908,93.9024 89.5,91.5C 91.1667,89.1667 93.1667,87.1667 95.5,85.5 Z"/></g>
<g><path style="opacity:1" fill="#0b260e" d="M 163.5,94.5 C 164.833,94.5 166.167,94.5 167.5,94.5C 174.164,95.3237 180.164,97.657 185.5,101.5C 183.784,101.371 182.117,101.038 180.5,100.5C 179.07,99.4625 177.403,98.7959 175.5,98.5C 172.833,97.8333 170.167,97.1667 167.5,96.5C 166.167,95.8333 164.833,95.1667 163.5,94.5 Z"/></g>
<g><path style="opacity:1" fill="#062c0d" d="M 211.5,91.5 C 212.794,92.2899 213.961,93.2899 215,94.5C 216.257,99.8199 215.09,104.487 211.5,108.5C 210.833,108.5 210.167,108.5 209.5,108.5C 210.184,106.551 211.351,104.885 213,103.5C 213.669,99.3511 213.169,95.3511 211.5,91.5 Z"/></g>
<g><path style="opacity:1" fill="#1773fa" d="M 102.5,95.5 C 101.533,96.8062 100.199,97.4729 98.5,97.5C 98.1156,99.9294 97.449,102.263 96.5,104.5C 94.9582,105.301 93.2915,105.634 91.5,105.5C 91.0578,109.154 90.7244,112.821 90.5,116.5C 87.7754,114.362 85.2754,115.029 83,118.5C 82.5065,120.134 82.3398,121.801 82.5,123.5C 80.262,117.396 79.9286,111.063 81.5,104.5C 83.2132,103.365 83.8799,101.698 83.5,99.5C 84.1667,99.1667 84.8333,98.8333 85.5,98.5C 87.5441,97.9688 89.2107,96.8022 90.5,95C 91.7932,94.51 93.1266,94.3433 94.5,94.5C 94.244,92.0876 95.244,90.4209 97.5,89.5C 99.1643,91.4911 100.831,93.4911 102.5,95.5 Z"/></g>
<g><path style="opacity:1" fill="#405578" d="M 23.5,50.5 C 23.6495,51.552 23.4828,52.552 23,53.5C 20.259,55.0674 19.0923,57.4007 19.5,60.5C 18.5714,61.9361 17.4048,63.2695 16,64.5C 14.9603,69.2899 12.9603,73.6233 10,77.5C 8.82449,82.5868 7.65782,87.5868 6.5,92.5C 6.5,92.8333 6.5,93.1667 6.5,93.5C 4.65357,97.8684 3.4869,102.535 3,107.5C 2.5002,117.161 2.33353,126.828 2.5,136.5C 1.58994,129.342 0.923274,122.008 0.5,114.5C 0.718515,110.242 1.38518,106.076 2.5,102C 2.49152,100.293 2.15818,98.7933 1.5,97.5C 4.60712,83.6781 9.77379,70.6781 17,58.5C 18.9461,55.5798 21.1128,52.9131 23.5,50.5 Z"/></g>
<g><path style="opacity:1" fill="#d9eefb" d="M 89.5,91.5 C 87.0908,93.9024 85.0908,96.5691 83.5,99.5C 82.0937,99.9731 81.427,100.973 81.5,102.5C 79.7868,103.635 79.1201,105.302 79.5,107.5C 79.3748,113.203 79.7081,118.87 80.5,124.5C 79.7677,123.192 78.9344,121.858 78,120.5C 77.2215,113.067 77.7215,105.734 79.5,98.5C 80.325,97.6143 81.325,97.281 82.5,97.5C 82.4208,96.0695 82.7542,94.7362 83.5,93.5C 85.2955,92.8586 86.7955,91.8586 88,90.5C 88.3826,91.056 88.8826,91.3893 89.5,91.5 Z"/></g>
<g><path style="opacity:1" fill="#3678dd" d="M 106.5,94.5 C 103.473,98.1938 100.14,101.527 96.5,104.5C 97.449,102.263 98.1156,99.9294 98.5,97.5C 100.199,97.4729 101.533,96.8062 102.5,95.5C 103.708,94.7659 105.041,94.4326 106.5,94.5 Z"/></g>
<g><path style="opacity:1" fill="#32c066" d="M 153.5,94.5 C 155.167,94.5 156.833,94.5 158.5,94.5C 160.167,94.5 161.833,94.5 163.5,94.5C 164.833,95.1667 166.167,95.8333 167.5,96.5C 163.108,95.9117 158.774,95.9117 154.5,96.5C 150.597,100.234 147.263,104.4 144.5,109C 151.81,110.171 158.477,112.671 164.5,116.5C 162.435,116.483 160.435,116.15 158.5,115.5C 153.955,114.051 149.289,112.717 144.5,111.5C 143.602,110.842 142.602,110.176 141.5,109.5C 142.883,107.68 143.883,105.68 144.5,103.5C 148.522,101.478 151.522,98.4784 153.5,94.5 Z"/></g>
<g><path style="opacity:1" fill="#6acc8e" d="M 153.5,94.5 C 151.522,98.4784 148.522,101.478 144.5,103.5C 147.118,100.215 150.118,97.2148 153.5,94.5 Z"/></g>
<g><path style="opacity:1" fill="#dbf1fd" d="M 68.5,74.5 C 68.6495,75.552 68.4828,76.552 68,77.5C 63.9544,82.5504 60.2877,87.8837 57,93.5C 56.6667,95.8333 56.3333,98.1667 56,100.5C 55.3292,101.252 54.4959,101.586 53.5,101.5C 53.5,100.833 53.5,100.167 53.5,99.5C 54.6662,94.1675 56.6662,89.1675 59.5,84.5C 60.1667,83.5 60.8333,82.5 61.5,81.5C 63.5968,78.9473 65.9302,76.614 68.5,74.5 Z"/></g>
<g><path style="opacity:1" fill="#407cd6" d="M 83.5,99.5 C 83.8799,101.698 83.2132,103.365 81.5,104.5C 81.5,103.833 81.5,103.167 81.5,102.5C 81.427,100.973 82.0937,99.9731 83.5,99.5 Z"/></g>
<g><path style="opacity:1" fill="#8fb8ee" d="M 81.5,102.5 C 81.5,103.167 81.5,103.833 81.5,104.5C 80.8333,105.5 80.1667,106.5 79.5,107.5C 79.1201,105.302 79.7868,103.635 81.5,102.5 Z"/></g>
<g><path style="opacity:1" fill="#32b192" d="M 243.5,98.5 C 245.163,100.438 245.829,102.772 245.5,105.5C 244.833,104.5 244.167,103.5 243.5,102.5C 243.5,101.167 243.5,99.8333 243.5,98.5 Z"/></g>
<g><path style="opacity:1" fill="#4a6fb2" d="M 6.5,93.5 C 5.67945,103.636 5.01278,113.97 4.5,124.5C 4.45511,135.272 5.45511,145.938 7.5,156.5C 5.83333,149.833 4.16667,143.167 2.5,136.5C 2.33353,126.828 2.5002,117.161 3,107.5C 3.4869,102.535 4.65357,97.8684 6.5,93.5 Z"/></g>
<g><path style="opacity:1" fill="#93bbee" d="M 52.5,99.5 C 52.8333,99.5 53.1667,99.5 53.5,99.5C 53.5,100.167 53.5,100.833 53.5,101.5C 53.5,102.167 53.5,102.833 53.5,103.5C 52.5098,109.645 52.1765,115.978 52.5,122.5C 51.5119,117.36 51.1786,112.026 51.5,106.5C 51.6741,104.139 52.0074,101.806 52.5,99.5 Z"/></g>
<g><path style="opacity:1" fill="#3980c6" d="M 139.5,105.5 C 140.116,106.202 140.116,107.202 139.5,108.5C 139.5,109.167 139.5,109.833 139.5,110.5C 138.833,110.5 138.167,110.5 137.5,110.5C 137.5,109.5 137.5,108.5 137.5,107.5C 135.784,107.629 134.117,107.962 132.5,108.5C 134.176,106.166 136.509,105.166 139.5,105.5 Z"/></g>
<g><path style="opacity:1" fill="#2690a9" d="M 139.5,105.5 C 140.209,104.596 141.209,104.263 142.5,104.5C 142.262,106.404 141.262,107.738 139.5,108.5C 140.116,107.202 140.116,106.202 139.5,105.5 Z"/></g>
<g><path style="opacity:1" fill="#38a97f" d="M 144.5,103.5 C 143.883,105.68 142.883,107.68 141.5,109.5C 142.602,110.176 143.602,110.842 144.5,111.5C 142.708,111.634 141.042,111.301 139.5,110.5C 139.5,109.833 139.5,109.167 139.5,108.5C 141.262,107.738 142.262,106.404 142.5,104.5C 142.842,103.662 143.508,103.328 144.5,103.5 Z"/></g>
<g><path style="opacity:1" fill="#2769c9" d="M 137.5,110.5 C 137.5,111.167 137.5,111.833 137.5,112.5C 135.228,113.441 133.228,114.774 131.5,116.5C 131.167,113.5 132.5,112.167 135.5,112.5C 135.5,111.5 135.5,110.5 135.5,109.5C 133.053,109.615 131.053,110.615 129.5,112.5C 129.5,112.167 129.5,111.833 129.5,111.5C 130.167,110.167 131.167,109.167 132.5,108.5C 134.117,107.962 135.784,107.629 137.5,107.5C 137.5,108.5 137.5,109.5 137.5,110.5 Z"/></g>
<g><path style="opacity:1" fill="#588dd7" d="M 129.5,111.5 C 129.5,111.833 129.5,112.167 129.5,112.5C 127.754,114.252 125.754,115.585 123.5,116.5C 124.911,114.086 126.911,112.419 129.5,111.5 Z"/></g>
<g><path style="opacity:1" fill="#07250d" d="M 139.5,110.5 C 141.042,111.301 142.708,111.634 144.5,111.5C 149.289,112.717 153.955,114.051 158.5,115.5C 154.491,115.142 150.491,114.642 146.5,114C 143.602,113.564 141.269,112.397 139.5,110.5 Z"/></g>
<g><path style="opacity:1" fill="#1cda62" d="M 239.5,155.5 C 237.419,160.146 236.086,165.146 235.5,170.5C 235.5,171.167 235.5,171.833 235.5,172.5C 234.094,172.973 233.427,173.973 233.5,175.5C 232.533,176.806 231.199,177.473 229.5,177.5C 229.66,179.199 229.494,180.866 229,182.5C 226.775,185.2 225.275,188.2 224.5,191.5C 218.173,198.828 211.84,206.161 205.5,213.5C 202.299,215.177 198.965,216.677 195.5,218C 195.833,218.333 196.167,218.667 196.5,219C 195.207,219.49 193.873,219.657 192.5,219.5C 192.69,221.959 191.69,223.626 189.5,224.5C 187.611,225.604 185.945,226.937 184.5,228.5C 182.973,228.427 181.973,229.094 181.5,230.5C 181.167,230.5 180.833,230.5 180.5,230.5C 179.833,230.5 179.167,230.5 178.5,230.5C 175.802,230.845 173.802,232.178 172.5,234.5C 172.167,234.5 171.833,234.5 171.5,234.5C 165.319,236.629 158.985,238.296 152.5,239.5C 143.252,240.917 133.918,241.583 124.5,241.5C 119.856,240.474 115.19,239.307 110.5,238C 102.725,237.87 95.0583,237.036 87.5,235.5C 85.5648,234.85 83.5648,234.517 81.5,234.5C 81.1667,234.5 80.8333,234.5 80.5,234.5C 80.1667,233.833 79.8333,233.167 79.5,232.5C 77.8148,230.182 75.4815,229.182 72.5,229.5C 70.3529,227.263 68.0196,225.263 65.5,223.5C 61.5521,222.186 61.5521,220.686 65.5,219C 64.3826,217.108 62.7159,216.275 60.5,216.5C 60.5,217.5 60.5,218.5 60.5,219.5C 59.1779,219.67 58.0113,219.337 57,218.5C 56.7506,215.823 55.7506,213.49 54,211.5C 53.2904,212.973 52.1238,213.64 50.5,213.5C 49.078,212.075 47.4113,211.075 45.5,210.5C 45.4606,209.417 45.1272,208.417 44.5,207.5C 46.1667,206.833 47.8333,206.167 49.5,205.5C 48.6744,204.549 48.5078,203.549 49,202.5C 51.705,199.964 54.205,197.297 56.5,194.5C 61.8834,191.956 66.2168,188.122 69.5,183C 70.7839,182.316 71.9505,182.483 73,183.5C 72.8047,181.874 72.8047,180.207 73,178.5C 74.7073,176.963 76.2073,175.296 77.5,173.5C 78.8333,171.833 80.1667,170.167 81.5,168.5C 83.3542,167.759 85.0209,166.759 86.5,165.5C 100.167,165.5 113.833,165.5 127.5,165.5C 131.857,165.586 136.19,165.92 140.5,166.5C 141.5,166.5 142.5,166.5 143.5,166.5C 145.686,169.3 148.686,170.634 152.5,170.5C 153.167,170.5 153.833,170.5 154.5,170.5C 156.299,173.306 158.966,174.639 162.5,174.5C 162.833,174.5 163.167,174.5 163.5,174.5C 163.414,175.496 163.748,176.329 164.5,177C 169.286,180.217 174.286,181.051 179.5,179.5C 184.248,177.982 185.581,174.982 183.5,170.5C 183.267,168.938 182.6,167.605 181.5,166.5C 181.027,165.094 180.027,164.427 178.5,164.5C 177.358,162.567 175.692,161.067 173.5,160C 169.23,158.207 164.896,156.707 160.5,155.5C 159.833,155.5 159.167,155.5 158.5,155.5C 153.856,151.908 148.523,150.241 142.5,150.5C 142.167,150.5 141.833,150.5 141.5,150.5C 140.653,149.034 139.32,148.2 137.5,148C 131.167,147.084 124.834,146.25 118.5,145.5C 115.713,144.523 112.713,144.19 109.5,144.5C 109.351,143.448 109.517,142.448 110,141.5C 113.354,139.586 115.854,136.919 117.5,133.5C 119.878,131.959 122.378,130.625 125,129.5C 139.356,131.808 153.523,134.808 167.5,138.5C 167.833,138.5 168.167,138.5 168.5,138.5C 168.414,139.496 168.748,140.329 169.5,141C 175.325,143.745 180.992,146.745 186.5,150C 190.254,151.035 192.921,149.868 194.5,146.5C 199.948,147.068 201.948,144.568 200.5,139C 200.961,135.16 199.961,131.827 197.5,129C 196.207,128.51 194.873,128.343 193.5,128.5C 189.49,125.157 184.824,123.157 179.5,122.5C 177.456,121.492 175.456,120.492 173.5,119.5C 173.209,118.351 172.376,117.684 171,117.5C 168.863,116.923 166.696,116.59 164.5,116.5C 158.477,112.671 151.81,110.171 144.5,109C 147.263,104.4 150.597,100.234 154.5,96.5C 158.774,95.9117 163.108,95.9117 167.5,96.5C 167.577,97.7498 168.244,98.5831 169.5,99C 171.813,99.662 174.146,100.162 176.5,100.5C 177.833,100.5 179.167,100.5 180.5,100.5C 180.414,101.496 180.748,102.329 181.5,103C 184.101,103.92 186.768,104.587 189.5,105C 190.078,106.417 191.078,107.25 192.5,107.5C 197.242,112.517 202.909,113.684 209.5,111C 210.756,110.583 211.423,109.75 211.5,108.5C 213.144,108.714 214.644,108.38 216,107.5C 218.101,101.73 217.935,96.0637 215.5,90.5C 213.929,89.6906 212.262,89.3573 210.5,89.5C 210.443,88.391 210.11,87.391 209.5,86.5C 209.389,85.8826 209.056,85.3826 208.5,85C 211.377,84.2751 214.043,84.7751 216.5,86.5C 218.678,90.548 219.845,94.8813 220,99.5C 222.19,101.388 224.023,103.555 225.5,106C 226.635,106.749 227.635,106.583 228.5,105.5C 227.167,103.167 225.833,100.833 224.5,98.5C 225.689,97.5713 227.022,97.238 228.5,97.5C 228.455,93.6535 227.622,89.9869 226,86.5C 223.527,85.8803 221.027,85.2136 218.5,84.5C 221.304,83.8953 223.971,83.062 226.5,82C 232.225,80.572 235.225,82.7386 235.5,88.5C 234.178,88.33 233.011,88.6634 232,89.5C 231.24,97.5455 232.74,98.2122 236.5,91.5C 238.117,95.9058 237.45,99.9058 234.5,103.5C 234.833,104.167 235.167,104.833 235.5,105.5C 233.829,107.51 233.162,109.843 233.5,112.5C 234.5,112.5 235.5,112.5 236.5,112.5C 237.728,108.093 239.228,103.76 241,99.5C 243.112,101.636 242.945,103.636 240.5,105.5C 242.339,107.527 242.839,109.86 242,112.5C 239.824,112.988 237.991,113.988 236.5,115.5C 237.33,117.135 237.497,118.802 237,120.5C 238.011,121.337 239.178,121.67 240.5,121.5C 240.908,126.695 241.908,131.695 243.5,136.5C 242.5,136.5 241.5,136.5 240.5,136.5C 240.65,140.161 239.15,141.161 236,139.5C 235.808,137.423 235.308,135.423 234.5,133.5C 234.167,134.667 233.833,135.833 233.5,137C 234.574,143.629 236.574,149.795 239.5,155.5 Z"/></g>
<g><path style="opacity:1" fill="#36c66b" d="M 192.5,107.5 C 193.5,107.5 194.5,107.5 195.5,107.5C 200.021,110.864 204.688,111.198 209.5,108.5C 210.167,108.5 210.833,108.5 211.5,108.5C 211.423,109.75 210.756,110.583 209.5,111C 202.909,113.684 197.242,112.517 192.5,107.5 Z"/></g>
<g><path style="opacity:1" fill="#082a0e" d="M 185.5,101.5 C 188.647,101.737 191.647,102.57 194.5,104C 198.792,107.81 203.792,109.31 209.5,108.5C 204.688,111.198 200.021,110.864 195.5,107.5C 192.408,105.07 189.075,103.07 185.5,101.5 Z"/></g>
<g><path style="opacity:1" fill="#32a95b" d="M 180.5,100.5 C 182.117,101.038 183.784,101.371 185.5,101.5C 189.075,103.07 192.408,105.07 195.5,107.5C 194.5,107.5 193.5,107.5 192.5,107.5C 191.078,107.25 190.078,106.417 189.5,105C 186.768,104.587 184.101,103.92 181.5,103C 180.748,102.329 180.414,101.496 180.5,100.5 Z"/></g>
<g><path style="opacity:1" fill="#2d864a" d="M 175.5,98.5 C 177.403,98.7959 179.07,99.4625 180.5,100.5C 179.167,100.5 177.833,100.5 176.5,100.5C 176.167,99.8333 175.833,99.1667 175.5,98.5 Z"/></g>
<g><path style="opacity:1" fill="#38bf67" d="M 167.5,96.5 C 170.167,97.1667 172.833,97.8333 175.5,98.5C 175.833,99.1667 176.167,99.8333 176.5,100.5C 174.146,100.162 171.813,99.662 169.5,99C 168.244,98.5831 167.577,97.7498 167.5,96.5 Z"/></g>
<g><path style="opacity:0.905" fill="#4574b6" d="M 211.5,33.5 C 233.453,53.4036 246.453,78.0703 250.5,107.5C 250.5,117.833 250.5,128.167 250.5,138.5C 248.477,150.91 244.81,162.91 239.5,174.5C 238.377,172.312 238.377,169.979 239.5,167.5C 239.5,167.167 239.5,166.833 239.5,166.5C 241.897,163.691 243.23,160.358 243.5,156.5C 243.5,155.167 243.5,153.833 243.5,152.5C 243.232,150.901 243.566,149.568 244.5,148.5C 246.388,146.012 247.055,143.012 246.5,139.5C 246.5,139.167 246.5,138.833 246.5,138.5C 248.449,131.217 248.783,123.884 247.5,116.5C 247.257,110.816 246.757,105.149 246,99.5C 245.626,97.5087 244.793,95.842 243.5,94.5C 242.833,91.8333 242.167,89.1667 241.5,86.5C 241.606,83.9214 240.939,81.588 239.5,79.5C 239.573,77.9731 238.906,76.9731 237.5,76.5C 237.5,75.8333 237.5,75.1667 237.5,74.5C 237.245,72.0326 236.245,70.0326 234.5,68.5C 234.408,66.1523 233.408,64.4856 231.5,63.5C 231.426,60.3413 230.093,58.0079 227.5,56.5C 226.581,53.9108 224.914,51.9108 222.5,50.5C 221.581,47.9108 219.914,45.9108 217.5,44.5C 217.672,43.5084 217.338,42.8417 216.5,42.5C 216.167,40.1667 214.833,38.8333 212.5,38.5C 211.791,37.596 210.791,37.2627 209.5,37.5C 210.167,36.1667 210.833,34.8333 211.5,33.5 Z"/></g>
<g><path style="opacity:1" fill="#176dfd" d="M 50.5,124.5 C 51.9747,129.4 52.9747,134.4 53.5,139.5C 56.6557,139.529 58.3223,141.196 58.5,144.5C 59.8518,145.524 61.1851,146.524 62.5,147.5C 63.4194,150.089 65.086,152.089 67.5,153.5C 68.8333,154.5 70.1667,155.5 71.5,156.5C 71.5394,157.583 71.8728,158.583 72.5,159.5C 74.1836,160.15 75.5169,161.15 76.5,162.5C 75.0695,162.579 73.7362,162.246 72.5,161.5C 71.8076,162.025 71.3076,162.692 71,163.5C 70.6667,161.5 70.3333,159.5 70,157.5C 68.4126,156.273 67.0793,156.606 66,158.5C 67.1257,156.05 66.459,154.05 64,152.5C 63.2747,154.158 62.108,154.658 60.5,154C 59.7362,151.931 59.2362,149.764 59,147.5C 57.1217,149.043 55.6217,150.876 54.5,153C 51.1531,154.206 48.8197,153.206 47.5,150C 46.2068,149.51 44.8734,149.343 43.5,149.5C 43.3328,152.957 42.3328,153.29 40.5,150.5C 34.6928,149.142 29.0261,149.476 23.5,151.5C 23.2436,149.208 23.5769,147.041 24.5,145C 29.8333,144.333 35.1667,144.333 40.5,145C 41.0465,145.925 41.7132,146.758 42.5,147.5C 45.279,143.563 48.1123,143.563 51,147.5C 55.2121,145.932 55.3787,143.765 51.5,141C 53.1247,138.729 52.7914,136.896 50.5,135.5C 49.7568,136.908 48.9234,138.241 48,139.5C 47.6924,138.692 47.1924,138.025 46.5,137.5C 44.6638,138.796 42.6638,139.63 40.5,140C 35.2926,140.759 30.1259,140.592 25,139.5C 23.1446,140.663 21.8112,142.33 21,144.5C 21.2087,140.541 19.3754,138.874 15.5,139.5C 15.6641,142.187 15.4974,144.854 15,147.5C 14.2917,148.381 13.4584,149.047 12.5,149.5C 10.7485,139.012 9.74845,128.345 9.5,117.5C 13.0862,116.306 16.7529,115.306 20.5,114.5C 27.7782,115.035 34.9448,116.035 42,117.5C 42.8333,116.5 43.6667,115.5 44.5,114.5C 46.8308,116.617 47.9974,119.284 48,122.5C 48.3333,122.167 48.6667,121.833 49,121.5C 49.2321,122.737 49.7321,123.737 50.5,124.5 Z"/></g>
<g><path style="opacity:1" fill="#5389da" d="M 95.5,106.5 C 93.8172,110.258 93.1505,114.258 93.5,118.5C 92.1923,114.981 92.1923,111.315 93.5,107.5C 94.1835,107.137 94.8501,106.804 95.5,106.5 Z"/></g>
<g><path style="opacity:1" fill="#092a5a" d="M 137.5,112.5 C 132.575,116.758 127.908,121.425 123.5,126.5C 122.833,126.5 122.167,126.5 121.5,126.5C 124.5,122.833 127.833,119.5 131.5,116.5C 133.228,114.774 135.228,113.441 137.5,112.5 Z"/></g>
<g><path style="opacity:1" fill="#1a1411" d="M 137.5,110.5 C 138.167,110.5 138.833,110.5 139.5,110.5C 141.269,112.397 143.602,113.564 146.5,114C 150.491,114.642 154.491,115.142 158.5,115.5C 160.579,117.873 163.246,119.206 166.5,119.5C 169.322,120.507 172.322,121.34 175.5,122C 182.109,126.765 189.109,130.932 196.5,134.5C 196.813,137.247 196.48,139.914 195.5,142.5C 194.016,143.467 193.016,144.8 192.5,146.5C 189.43,146.632 186.43,146.299 183.5,145.5C 183.063,143.926 182.063,142.759 180.5,142C 175.349,139.924 170.349,137.59 165.5,135C 163.527,134.505 161.527,134.338 159.5,134.5C 157.898,132.926 155.898,132.259 153.5,132.5C 152.833,132.5 152.167,132.5 151.5,132.5C 150.5,131.833 149.5,131.167 148.5,130.5C 144.455,128.823 140.122,128.156 135.5,128.5C 131.79,126.864 127.79,126.198 123.5,126.5C 127.908,121.425 132.575,116.758 137.5,112.5C 137.5,111.833 137.5,111.167 137.5,110.5 Z"/></g>
<g><path style="opacity:1" fill="#0c1d09" d="M 158.5,115.5 C 160.435,116.15 162.435,116.483 164.5,116.5C 164.5,117.167 164.833,117.5 165.5,117.5C 165.833,118.167 166.167,118.833 166.5,119.5C 163.246,119.206 160.579,117.873 158.5,115.5 Z"/></g>
<g><path style="opacity:1" fill="#36b464" d="M 164.5,116.5 C 166.696,116.59 168.863,116.923 171,117.5C 172.376,117.684 173.209,118.351 173.5,119.5C 170.673,119.416 168.006,118.75 165.5,117.5C 164.833,117.5 164.5,117.167 164.5,116.5 Z"/></g>
<g><path style="opacity:1" fill="#2ace7a" d="M 243.5,102.5 C 244.167,103.5 244.833,104.5 245.5,105.5C 245.5,106.833 245.5,108.167 245.5,109.5C 245.827,118.682 245.493,127.682 244.5,136.5C 244.743,125.136 244.41,113.802 243.5,102.5 Z"/></g>
<g><path style="opacity:1" fill="#2971e8" d="M 96.5,104.5 C 96.6716,105.492 96.3382,106.158 95.5,106.5C 94.8501,106.804 94.1835,107.137 93.5,107.5C 92.1923,111.315 92.1923,114.981 93.5,118.5C 94.593,120.349 95.9263,122.016 97.5,123.5C 98.1667,124.5 98.8333,125.5 99.5,126.5C 97.8333,126.5 96.1667,126.5 94.5,126.5C 93.1667,123.167 91.8333,119.833 90.5,116.5C 90.7244,112.821 91.0578,109.154 91.5,105.5C 93.2915,105.634 94.9582,105.301 96.5,104.5 Z"/></g>
<g><path style="opacity:1" fill="#357faa" d="M 247.5,116.5 C 248.783,123.884 248.449,131.217 246.5,138.5C 246.5,135.5 246.5,132.5 246.5,129.5C 247.485,125.366 247.818,121.032 247.5,116.5 Z"/></g>
<g><path style="opacity:1" fill="#37b595" d="M 245.5,109.5 C 246.491,115.979 246.824,122.646 246.5,129.5C 246.5,132.5 246.5,135.5 246.5,138.5C 246.5,138.833 246.5,139.167 246.5,139.5C 245.833,141.167 245.167,142.833 244.5,144.5C 244.5,141.833 244.5,139.167 244.5,136.5C 245.493,127.682 245.827,118.682 245.5,109.5 Z"/></g>
<g><path style="opacity:1" fill="#308f9a" d="M 243.5,94.5 C 244.793,95.842 245.626,97.5087 246,99.5C 246.757,105.149 247.257,110.816 247.5,116.5C 247.818,121.032 247.485,125.366 246.5,129.5C 246.824,122.646 246.491,115.979 245.5,109.5C 245.5,108.167 245.5,106.833 245.5,105.5C 245.829,102.772 245.163,100.438 243.5,98.5C 243.5,97.1667 243.5,95.8333 243.5,94.5 Z"/></g>
<g><path style="opacity:1" fill="#226de4" d="M 9.5,104.5 C 8.3741,116.826 8.3741,129.159 9.5,141.5C 8.69808,140.048 8.19808,138.382 8,136.5C 7.83333,131.167 7.66667,125.833 7.5,120.5C 7.50509,114.789 8.17176,109.456 9.5,104.5 Z"/></g>
<g><path style="opacity:1" fill="#2370e5" d="M 131.5,116.5 C 127.833,119.5 124.5,122.833 121.5,126.5C 118.5,127.5 116.5,129.5 115.5,132.5C 114.167,133.5 112.833,134.5 111.5,135.5C 111.67,134.178 111.337,133.011 110.5,132C 111.833,131.667 113.167,131.333 114.5,131C 114.167,130.667 113.833,130.333 113.5,130C 109.5,129.667 105.5,129.333 101.5,129C 100.619,128.292 99.9528,127.458 99.5,126.5C 103.633,127.726 107.633,127.726 111.5,126.5C 112.167,126.5 112.833,126.5 113.5,126.5C 116.833,125.833 118.833,123.833 119.5,120.5C 120.833,119.167 122.167,117.833 123.5,116.5C 125.754,115.585 127.754,114.252 129.5,112.5C 131.053,110.615 133.053,109.615 135.5,109.5C 135.5,110.5 135.5,111.5 135.5,112.5C 132.5,112.167 131.167,113.5 131.5,116.5 Z"/></g>
<g><path style="opacity:1" fill="#5b8ad9" d="M 119.5,120.5 C 118.833,123.833 116.833,125.833 113.5,126.5C 115.167,124.167 117.167,122.167 119.5,120.5 Z"/></g>
<g><path style="opacity:1" fill="#0c260f" d="M 165.5,117.5 C 168.006,118.75 170.673,119.416 173.5,119.5C 175.456,120.492 177.456,121.492 179.5,122.5C 183.818,125.326 188.484,127.659 193.5,129.5C 194.167,130.833 195.167,131.833 196.5,132.5C 196.5,133.167 196.5,133.833 196.5,134.5C 189.109,130.932 182.109,126.765 175.5,122C 172.322,121.34 169.322,120.507 166.5,119.5C 166.167,118.833 165.833,118.167 165.5,117.5 Z"/></g>
<g><path style="opacity:1" fill="#3bb065" d="M 179.5,122.5 C 184.824,123.157 189.49,125.157 193.5,128.5C 193.5,128.833 193.5,129.167 193.5,129.5C 188.484,127.659 183.818,125.326 179.5,122.5 Z"/></g>
<g><path style="opacity:1" fill="#3471cf" d="M 81.5,104.5 C 79.9286,111.063 80.262,117.396 82.5,123.5C 84.2082,126.857 85.8749,130.19 87.5,133.5C 85.9373,132.055 84.604,130.389 83.5,128.5C 83.573,126.973 82.9063,125.973 81.5,125.5C 81.5,124.833 81.1667,124.5 80.5,124.5C 79.7081,118.87 79.3748,113.203 79.5,107.5C 80.1667,106.5 80.8333,105.5 81.5,104.5 Z"/></g>
<g><path style="opacity:1" fill="#c5e4fd" d="M 97.5,123.5 C 101.819,125.959 106.485,126.959 111.5,126.5C 107.633,127.726 103.633,127.726 99.5,126.5C 98.8333,125.5 98.1667,124.5 97.5,123.5 Z"/></g>
<g><path style="opacity:1" fill="#77a3dd" d="M 81.5,125.5 C 82.9063,125.973 83.573,126.973 83.5,128.5C 82.0937,128.027 81.427,127.027 81.5,125.5 Z"/></g>
<g><path style="opacity:1" fill="#196df9" d="M 90.5,116.5 C 91.8333,119.833 93.1667,123.167 94.5,126.5C 96.1667,126.5 97.8333,126.5 99.5,126.5C 99.9528,127.458 100.619,128.292 101.5,129C 105.5,129.333 109.5,129.667 113.5,130C 113.833,130.333 114.167,130.667 114.5,131C 113.167,131.333 111.833,131.667 110.5,132C 111.337,133.011 111.67,134.178 111.5,135.5C 108.474,135.837 106.474,137.504 105.5,140.5C 102.246,140.793 99.2457,140.126 96.5,138.5C 93.9922,136.076 90.9922,134.41 87.5,133.5C 85.8749,130.19 84.2082,126.857 82.5,123.5C 82.3398,121.801 82.5065,120.134 83,118.5C 85.2754,115.029 87.7754,114.362 90.5,116.5 Z"/></g>
<g><path style="opacity:1" fill="#0a491d" d="M 121.5,127.5 C 121.5,127.167 121.5,126.833 121.5,126.5C 122.167,126.5 122.833,126.5 123.5,126.5C 127.79,126.198 131.79,126.864 135.5,128.5C 132.167,128.5 128.833,128.5 125.5,128.5C 124.432,127.566 123.099,127.232 121.5,127.5 Z"/></g>
<g><path style="opacity:1" fill="#32bb8a" d="M 121.5,127.5 C 123.099,127.232 124.432,127.566 125.5,128.5C 121.825,128.5 119.159,130.167 117.5,133.5C 117.167,133.5 116.833,133.5 116.5,133.5C 116.5,133.167 116.5,132.833 116.5,132.5C 117.833,130.5 119.5,128.833 121.5,127.5 Z"/></g>
<g><path style="opacity:1" fill="#072e11" d="M 135.5,128.5 C 140.122,128.156 144.455,128.823 148.5,130.5C 147.167,130.5 145.833,130.5 144.5,130.5C 141.273,130.324 138.273,129.657 135.5,128.5 Z"/></g>
<g><path style="opacity:1" fill="#2fc768" d="M 193.5,128.5 C 194.873,128.343 196.207,128.51 197.5,129C 199.961,131.827 200.961,135.16 200.5,139C 201.948,144.568 199.948,147.068 194.5,146.5C 195.167,145.167 196.167,144.167 197.5,143.5C 199.026,142.508 199.693,141.008 199.5,139C 199.486,137.615 199.152,136.449 198.5,135.5C 198.573,133.973 197.906,132.973 196.5,132.5C 195.167,131.833 194.167,130.833 193.5,129.5C 193.5,129.167 193.5,128.833 193.5,128.5 Z"/></g>
<g><path style="opacity:1" fill="#1587b7" d="M 121.5,126.5 C 121.5,126.833 121.5,127.167 121.5,127.5C 119.5,128.833 117.833,130.5 116.5,132.5C 116.167,132.5 115.833,132.5 115.5,132.5C 116.5,129.5 118.5,127.5 121.5,126.5 Z"/></g>
<g><path style="opacity:1" fill="#135e2a" d="M 144.5,130.5 C 145.833,130.5 147.167,130.5 148.5,130.5C 149.5,131.167 150.5,131.833 151.5,132.5C 148.848,132.59 146.515,131.924 144.5,130.5 Z"/></g>
<g><path style="opacity:1" fill="#33c46a" d="M 125.5,128.5 C 128.833,128.5 132.167,128.5 135.5,128.5C 138.273,129.657 141.273,130.324 144.5,130.5C 146.515,131.924 148.848,132.59 151.5,132.5C 152.167,132.5 152.833,132.5 153.5,132.5C 155.102,134.074 157.102,134.741 159.5,134.5C 162.254,135.641 164.921,136.975 167.5,138.5C 153.523,134.808 139.356,131.808 125,129.5C 122.378,130.625 119.878,131.959 117.5,133.5C 119.159,130.167 121.825,128.5 125.5,128.5 Z"/></g>
<g><path style="opacity:1" fill="#043c14" d="M 153.5,132.5 C 155.898,132.259 157.898,132.926 159.5,134.5C 157.102,134.741 155.102,134.074 153.5,132.5 Z"/></g>
<g><path style="opacity:1" fill="#e8f6fe" d="M 53.5,103.5 C 53.7704,108.653 53.7704,113.653 53.5,118.5C 54.9637,123.094 56.1304,127.76 57,132.5C 59.6391,135.281 61.1391,138.614 61.5,142.5C 65.4221,146.962 69.0888,151.629 72.5,156.5C 72.1667,156.5 71.8333,156.5 71.5,156.5C 70.1667,155.5 68.8333,154.5 67.5,153.5C 66.5806,150.911 64.914,148.911 62.5,147.5C 57.7823,139.73 54.4489,131.396 52.5,122.5C 52.1765,115.978 52.5098,109.645 53.5,103.5 Z"/></g>
<g><path style="opacity:1" fill="#1277d2" d="M 111.5,135.5 C 110.167,137.5 108.5,139.167 106.5,140.5C 106.167,140.5 105.833,140.5 105.5,140.5C 106.474,137.504 108.474,135.837 111.5,135.5 Z"/></g>
<g><path style="opacity:1" fill="#073312" d="M 159.5,134.5 C 161.527,134.338 163.527,134.505 165.5,135C 170.349,137.59 175.349,139.924 180.5,142C 182.063,142.759 183.063,143.926 183.5,145.5C 178.615,142.98 173.615,140.646 168.5,138.5C 168.167,138.5 167.833,138.5 167.5,138.5C 164.921,136.975 162.254,135.641 159.5,134.5 Z"/></g>
<g><path style="opacity:1" fill="#1a66fd" d="M 76.5,162.5 C 77.5,162.5 78.5,162.5 79.5,162.5C 79.5,164.167 79.5,165.833 79.5,167.5C 74.0905,170.574 70.0905,174.908 67.5,180.5C 67.1667,180.5 66.8333,180.5 66.5,180.5C 66.5499,178.41 65.5499,177.077 63.5,176.5C 64.0164,177.758 63.3497,178.758 61.5,179.5C 59.4645,177.987 57.1312,177.321 54.5,177.5C 46.8554,177.811 39.1888,177.811 31.5,177.5C 29.1463,178.06 26.813,178.727 24.5,179.5C 25.3094,181.071 25.6427,182.738 25.5,184.5C 24.8333,183.833 24.1667,183.167 23.5,182.5C 19.3799,171.61 15.7132,160.61 12.5,149.5C 13.4584,149.047 14.2917,148.381 15,147.5C 15.4974,144.854 15.6641,142.187 15.5,139.5C 19.3754,138.874 21.2087,140.541 21,144.5C 21.8112,142.33 23.1446,140.663 25,139.5C 30.1259,140.592 35.2926,140.759 40.5,140C 42.6638,139.63 44.6638,138.796 46.5,137.5C 47.1924,138.025 47.6924,138.692 48,139.5C 48.9234,138.241 49.7568,136.908 50.5,135.5C 52.7914,136.896 53.1247,138.729 51.5,141C 55.3787,143.765 55.2121,145.932 51,147.5C 48.1123,143.563 45.279,143.563 42.5,147.5C 41.7132,146.758 41.0465,145.925 40.5,145C 35.1667,144.333 29.8333,144.333 24.5,145C 23.5769,147.041 23.2436,149.208 23.5,151.5C 29.0261,149.476 34.6928,149.142 40.5,150.5C 42.3328,153.29 43.3328,152.957 43.5,149.5C 44.8734,149.343 46.2068,149.51 47.5,150C 48.8197,153.206 51.1531,154.206 54.5,153C 55.6217,150.876 57.1217,149.043 59,147.5C 59.2362,149.764 59.7362,151.931 60.5,154C 62.108,154.658 63.2747,154.158 64,152.5C 66.459,154.05 67.1257,156.05 66,158.5C 67.0793,156.606 68.4126,156.273 70,157.5C 70.3333,159.5 70.6667,161.5 71,163.5C 71.3076,162.692 71.8076,162.025 72.5,161.5C 73.7362,162.246 75.0695,162.579 76.5,162.5 Z"/></g>
<g><path style="opacity:1" fill="#3971d8" d="M 87.5,133.5 C 90.9922,134.41 93.9922,136.076 96.5,138.5C 95.5,138.5 94.5,138.5 93.5,138.5C 90.8908,137.557 88.8908,135.89 87.5,133.5 Z"/></g>
<g><path style="opacity:1" fill="#034414" d="M 196.5,132.5 C 197.906,132.973 198.573,133.973 198.5,135.5C 198.795,137.735 198.461,139.735 197.5,141.5C 197.802,138.941 197.468,136.607 196.5,134.5C 196.5,133.833 196.5,133.167 196.5,132.5 Z"/></g>
<g><path style="opacity:1" fill="#329955" d="M 198.5,135.5 C 199.152,136.449 199.486,137.615 199.5,139C 199.693,141.008 199.026,142.508 197.5,143.5C 197.5,142.833 197.5,142.167 197.5,141.5C 198.461,139.735 198.795,137.735 198.5,135.5 Z"/></g>
<g><path style="opacity:1" fill="#6795d8" d="M 93.5,138.5 C 94.5,138.5 95.5,138.5 96.5,138.5C 99.2457,140.126 102.246,140.793 105.5,140.5C 105.833,140.5 106.167,140.5 106.5,140.5C 106.5,140.833 106.5,141.167 106.5,141.5C 106.167,141.5 105.833,141.5 105.5,141.5C 101.018,141.966 97.0184,140.966 93.5,138.5 Z"/></g>
<g><path style="opacity:1" fill="#21a5a4" d="M 115.5,132.5 C 115.833,132.5 116.167,132.5 116.5,132.5C 116.5,132.833 116.5,133.167 116.5,133.5C 113.5,136.167 110.5,138.833 107.5,141.5C 107.167,141.5 106.833,141.5 106.5,141.5C 106.5,141.167 106.5,140.833 106.5,140.5C 108.5,139.167 110.167,137.5 111.5,135.5C 112.833,134.5 114.167,133.5 115.5,132.5 Z"/></g>
<g><path style="opacity:1" fill="#1e69ed" d="M 10.5,99.5 C 10.7461,105.559 10.4128,111.559 9.5,117.5C 9.74845,128.345 10.7485,139.012 12.5,149.5C 15.7132,160.61 19.3799,171.61 23.5,182.5C 19.6394,176.112 16.3061,169.446 13.5,162.5C 13.5,162.167 13.5,161.833 13.5,161.5C 11.2156,155.028 9.88232,148.362 9.5,141.5C 8.3741,129.159 8.3741,116.826 9.5,104.5C 9.21552,102.585 9.54885,100.919 10.5,99.5 Z"/></g>
<g><path style="opacity:1" fill="#3c73d9" d="M 50.5,106.5 C 50.8333,106.5 51.1667,106.5 51.5,106.5C 51.1786,112.026 51.5119,117.36 52.5,122.5C 54.4489,131.396 57.7823,139.73 62.5,147.5C 61.1851,146.524 59.8518,145.524 58.5,144.5C 58.3223,141.196 56.6557,139.529 53.5,139.5C 52.9747,134.4 51.9747,129.4 50.5,124.5C 49.2743,118.479 49.2743,112.479 50.5,106.5 Z"/></g>
<g><path style="opacity:1" fill="#27d16e" d="M 116.5,133.5 C 116.833,133.5 117.167,133.5 117.5,133.5C 115.854,136.919 113.354,139.586 110,141.5C 109.517,142.448 109.351,143.448 109.5,144.5C 112.713,144.19 115.713,144.523 118.5,145.5C 113.968,145.818 109.634,145.485 105.5,144.5C 106.167,143.5 106.833,142.5 107.5,141.5C 110.5,138.833 113.5,136.167 116.5,133.5 Z"/></g>
<g><path style="opacity:1" fill="#06260d" d="M 196.5,134.5 C 197.468,136.607 197.802,138.941 197.5,141.5C 197.5,142.167 197.5,142.833 197.5,143.5C 196.167,144.167 195.167,145.167 194.5,146.5C 193.833,146.5 193.167,146.5 192.5,146.5C 193.016,144.8 194.016,143.467 195.5,142.5C 196.48,139.914 196.813,137.247 196.5,134.5 Z"/></g>
<g><path style="opacity:1" fill="#4fad76" d="M 105.5,141.5 C 105.833,141.5 106.167,141.5 106.5,141.5C 106.833,141.5 107.167,141.5 107.5,141.5C 106.833,142.5 106.167,143.5 105.5,144.5C 104.957,144.56 104.624,144.893 104.5,145.5C 110.319,146.167 115.986,146.833 121.5,147.5C 114.5,147.5 107.5,147.5 100.5,147.5C 102.156,145.54 103.823,143.54 105.5,141.5 Z"/></g>
<g><path style="opacity:1" fill="#39bc69" d="M 105.5,144.5 C 109.634,145.485 113.968,145.818 118.5,145.5C 124.834,146.25 131.167,147.084 137.5,148C 139.32,148.2 140.653,149.034 141.5,150.5C 134.856,149.336 128.19,148.336 121.5,147.5C 115.986,146.833 110.319,146.167 104.5,145.5C 104.624,144.893 104.957,144.56 105.5,144.5 Z"/></g>
<g><path style="opacity:1" fill="#034618" d="M 183.5,145.5 C 186.43,146.299 189.43,146.632 192.5,146.5C 190.034,147.634 187.367,147.801 184.5,147C 183.944,146.617 183.611,146.117 183.5,145.5 Z"/></g>
<g><path style="opacity:1" fill="#3581aa" d="M 246.5,139.5 C 247.055,143.012 246.388,146.012 244.5,148.5C 244.5,147.167 244.5,145.833 244.5,144.5C 245.167,142.833 245.833,141.167 246.5,139.5 Z"/></g>
<g><path style="opacity:1" fill="#5880d3" d="M 62.5,147.5 C 64.914,148.911 66.5806,150.911 67.5,153.5C 65.086,152.089 63.4194,150.089 62.5,147.5 Z"/></g>
<g><path style="opacity:1" fill="#062a0e" d="M 100.5,148.5 C 100.5,148.167 100.5,147.833 100.5,147.5C 107.5,147.5 114.5,147.5 121.5,147.5C 128.19,148.336 134.856,149.336 141.5,150.5C 141.833,150.5 142.167,150.5 142.5,150.5C 146.293,151.431 149.959,152.765 153.5,154.5C 144.973,152.467 136.307,150.967 127.5,150C 118.485,149.642 109.485,149.142 100.5,148.5 Z"/></g>
<g><path style="opacity:1" fill="#32c568" d="M 168.5,138.5 C 173.615,140.646 178.615,142.98 183.5,145.5C 183.611,146.117 183.944,146.617 184.5,147C 187.367,147.801 190.034,147.634 192.5,146.5C 193.167,146.5 193.833,146.5 194.5,146.5C 192.921,149.868 190.254,151.035 186.5,150C 180.992,146.745 175.325,143.745 169.5,141C 168.748,140.329 168.414,139.496 168.5,138.5 Z"/></g>
<g><path style="opacity:1" fill="#1b1412" d="M 100.5,148.5 C 109.485,149.142 118.485,149.642 127.5,150C 136.307,150.967 144.973,152.467 153.5,154.5C 156.983,157.237 160.983,158.903 165.5,159.5C 167.403,159.796 169.07,160.463 170.5,161.5C 173.291,163.735 176.291,165.735 179.5,167.5C 179.92,169.094 180.586,170.594 181.5,172C 180.852,173.44 180.519,174.94 180.5,176.5C 178.097,176.448 175.764,176.781 173.5,177.5C 167.051,173.941 160.384,170.941 153.5,168.5C 152.833,168.5 152.167,168.5 151.5,168.5C 150.508,168.672 149.842,168.338 149.5,167.5C 149.53,166.503 149.03,165.836 148,165.5C 145.447,164.892 142.947,164.225 140.5,163.5C 140.389,162.883 140.056,162.383 139.5,162C 122.712,160.004 106.046,159.17 89.5,159.5C 92.8333,155.5 96.5,151.833 100.5,148.5 Z"/></g>
<g><path style="opacity:1" fill="#32ba8c" d="M 244.5,144.5 C 244.5,145.833 244.5,147.167 244.5,148.5C 243.566,149.568 243.232,150.901 243.5,152.5C 243.167,152.5 242.833,152.5 242.5,152.5C 242.5,151.167 242.5,149.833 242.5,148.5C 242.989,147.005 243.655,145.671 244.5,144.5 Z"/></g>
<g><path style="opacity:1" fill="#35a95e" d="M 142.5,150.5 C 148.523,150.241 153.856,151.908 158.5,155.5C 156.883,154.962 155.216,154.629 153.5,154.5C 149.959,152.765 146.293,151.431 142.5,150.5 Z"/></g>
<g><path style="opacity:1" fill="#29d076" d="M 242.5,148.5 C 242.5,149.833 242.5,151.167 242.5,152.5C 241.85,154.435 241.517,156.435 241.5,158.5C 241.5,158.833 241.5,159.167 241.5,159.5C 240.094,159.973 239.427,160.973 239.5,162.5C 239.5,162.833 239.5,163.167 239.5,163.5C 238.463,164.93 237.796,166.597 237.5,168.5C 237.5,168.833 237.5,169.167 237.5,169.5C 236.833,169.833 236.167,170.167 235.5,170.5C 236.086,165.146 237.419,160.146 239.5,155.5C 240.656,153.176 241.656,150.843 242.5,148.5 Z"/></g>
<g><path style="opacity:1" fill="#062d0f" d="M 153.5,154.5 C 155.216,154.629 156.883,154.962 158.5,155.5C 159.167,155.5 159.833,155.5 160.5,155.5C 162.167,156.833 163.833,158.167 165.5,159.5C 160.983,158.903 156.983,157.237 153.5,154.5 Z"/></g>
<g><path style="opacity:1" fill="#2e9a98" d="M 242.5,152.5 C 242.833,152.5 243.167,152.5 243.5,152.5C 243.5,153.833 243.5,155.167 243.5,156.5C 242.833,157.167 242.167,157.833 241.5,158.5C 241.517,156.435 241.85,154.435 242.5,152.5 Z"/></g>
<g><path style="opacity:1" fill="#416ed1" d="M 71.5,156.5 C 71.8333,156.5 72.1667,156.5 72.5,156.5C 74.6471,158.737 76.9804,160.737 79.5,162.5C 78.5,162.5 77.5,162.5 76.5,162.5C 75.5169,161.15 74.1836,160.15 72.5,159.5C 71.8728,158.583 71.5394,157.583 71.5,156.5 Z"/></g>
<g><path style="opacity:1" fill="#35ac5f" d="M 160.5,155.5 C 164.896,156.707 169.23,158.207 173.5,160C 175.692,161.067 177.358,162.567 178.5,164.5C 175.833,163.5 173.167,162.5 170.5,161.5C 169.07,160.463 167.403,159.796 165.5,159.5C 163.833,158.167 162.167,156.833 160.5,155.5 Z"/></g>
<g><path style="opacity:1" fill="#357fad" d="M 243.5,156.5 C 243.23,160.358 241.897,163.691 239.5,166.5C 239.5,165.5 239.5,164.5 239.5,163.5C 239.5,163.167 239.5,162.833 239.5,162.5C 240.906,162.027 241.573,161.027 241.5,159.5C 241.5,159.167 241.5,158.833 241.5,158.5C 242.167,157.833 242.833,157.167 243.5,156.5 Z"/></g>
<g><path style="opacity:1" fill="#102311" d="M 140.5,163.5 C 138.167,163.5 135.833,163.5 133.5,163.5C 130.214,162.793 126.881,162.46 123.5,162.5C 111.167,162.5 98.8333,162.5 86.5,162.5C 87.1667,161.167 88.1667,160.167 89.5,159.5C 106.046,159.17 122.712,160.004 139.5,162C 140.056,162.383 140.389,162.883 140.5,163.5 Z"/></g>
<g><path style="opacity:0.822" fill="#425673" d="M 1.5,97.5 C 2.15818,98.7933 2.49152,100.293 2.5,102C 1.38518,106.076 0.718515,110.242 0.5,114.5C 0.923274,122.008 1.58994,129.342 2.5,136.5C 4.16667,143.167 5.83333,149.833 7.5,156.5C 8.17604,162.521 9.84271,168.188 12.5,173.5C 12.7678,175.099 12.4345,176.432 11.5,177.5C 5.78021,164.934 1.78021,151.934 -0.5,138.5C -0.5,128.167 -0.5,117.833 -0.5,107.5C 0.433899,104.344 1.10057,101.011 1.5,97.5 Z"/></g>
<g><path style="opacity:1" fill="#32a88f" d="M 241.5,159.5 C 241.573,161.027 240.906,162.027 239.5,162.5C 239.427,160.973 240.094,159.973 241.5,159.5 Z"/></g>
<g><path style="opacity:1" fill="#3bb76c" d="M 86.5,162.5 C 98.8333,162.5 111.167,162.5 123.5,162.5C 123.5,162.833 123.5,163.167 123.5,163.5C 113.828,163.334 104.161,163.5 94.5,164C 91.6353,164.183 88.9686,164.683 86.5,165.5C 85.0209,166.759 83.3542,167.759 81.5,168.5C 82.4408,166.95 83.1075,165.284 83.5,163.5C 84.391,162.89 85.391,162.557 86.5,162.5 Z"/></g>
<g><path style="opacity:1" fill="#496db1" d="M 7.5,156.5 C 8.77765,156.782 9.77765,157.449 10.5,158.5C 11.9007,162.686 12.734,167.019 13,171.5C 15.8334,173.836 17.0001,176.836 16.5,180.5C 14.437,178.551 13.1036,176.218 12.5,173.5C 9.84271,168.188 8.17604,162.521 7.5,156.5 Z"/></g>
<g><path style="opacity:1" fill="#1b6a34" d="M 123.5,163.5 C 123.5,163.167 123.5,162.833 123.5,162.5C 126.881,162.46 130.214,162.793 133.5,163.5C 133.5,163.833 133.5,164.167 133.5,164.5C 130.518,164.037 127.518,163.704 124.5,163.5C 124.167,163.5 123.833,163.5 123.5,163.5 Z"/></g>
<g><path style="opacity:1" fill="#082b10" d="M 133.5,164.5 C 133.5,164.167 133.5,163.833 133.5,163.5C 135.833,163.5 138.167,163.5 140.5,163.5C 142.947,164.225 145.447,164.892 148,165.5C 149.03,165.836 149.53,166.503 149.5,167.5C 147.435,167.483 145.435,167.15 143.5,166.5C 142.5,166.5 141.5,166.5 140.5,166.5C 138.485,165.076 136.152,164.41 133.5,164.5 Z"/></g>
<g><path style="opacity:1" fill="#033511" d="M 170.5,161.5 C 173.167,162.5 175.833,163.5 178.5,164.5C 178.973,165.906 179.973,166.573 181.5,166.5C 182.6,167.605 183.267,168.938 183.5,170.5C 183.768,172.099 183.434,173.432 182.5,174.5C 183.092,171.369 182.092,169.036 179.5,167.5C 176.291,165.735 173.291,163.735 170.5,161.5 Z"/></g>
<g><path style="opacity:1" fill="#29919c" d="M 81.5,163.5 C 82.1667,163.5 82.8333,163.5 83.5,163.5C 83.1075,165.284 82.4408,166.95 81.5,168.5C 81.1667,168.5 80.8333,168.5 80.5,168.5C 80.5,168.167 80.5,167.833 80.5,167.5C 81.2341,166.292 81.5674,164.959 81.5,163.5 Z"/></g>
<g><path style="opacity:1" fill="#26d468" d="M 123.5,163.5 C 123.833,163.5 124.167,163.5 124.5,163.5C 125.5,164.167 126.5,164.833 127.5,165.5C 113.833,165.5 100.167,165.5 86.5,165.5C 88.9686,164.683 91.6353,164.183 94.5,164C 104.161,163.5 113.828,163.334 123.5,163.5 Z"/></g>
<g><path style="opacity:1" fill="#256fd2" d="M 79.5,162.5 C 80.4916,162.328 81.1583,162.662 81.5,163.5C 81.5674,164.959 81.2341,166.292 80.5,167.5C 80.1667,167.5 79.8333,167.5 79.5,167.5C 79.5,165.833 79.5,164.167 79.5,162.5 Z"/></g>
<g><path style="opacity:1" fill="#42ba6c" d="M 124.5,163.5 C 127.518,163.704 130.518,164.037 133.5,164.5C 136.152,164.41 138.485,165.076 140.5,166.5C 136.19,165.92 131.857,165.586 127.5,165.5C 126.5,164.833 125.5,164.167 124.5,163.5 Z"/></g>
<g><path style="opacity:1" fill="#399f5a" d="M 178.5,164.5 C 180.027,164.427 181.027,165.094 181.5,166.5C 179.973,166.573 178.973,165.906 178.5,164.5 Z"/></g>
<g><path style="opacity:1" fill="#309d90" d="M 239.5,163.5 C 239.5,164.5 239.5,165.5 239.5,166.5C 239.5,166.833 239.5,167.167 239.5,167.5C 238.833,167.833 238.167,168.167 237.5,168.5C 237.796,166.597 238.463,164.93 239.5,163.5 Z"/></g>
<g><path style="opacity:1" fill="#35b963" d="M 143.5,166.5 C 145.435,167.15 147.435,167.483 149.5,167.5C 149.842,168.338 150.508,168.672 151.5,168.5C 151.833,169.167 152.167,169.833 152.5,170.5C 148.686,170.634 145.686,169.3 143.5,166.5 Z"/></g>
<g><path style="opacity:1" fill="#093714" d="M 153.5,168.5 C 160.384,170.941 167.051,173.941 173.5,177.5C 175.265,178.461 177.265,178.795 179.5,178.5C 179.5,178.833 179.5,179.167 179.5,179.5C 173.634,179.568 168.301,177.902 163.5,174.5C 163.167,174.5 162.833,174.5 162.5,174.5C 160.109,172.638 157.442,171.304 154.5,170.5C 154.167,169.833 153.833,169.167 153.5,168.5 Z"/></g>
<g><path style="opacity:1" fill="#1e7839" d="M 151.5,168.5 C 152.167,168.5 152.833,168.5 153.5,168.5C 153.833,169.167 154.167,169.833 154.5,170.5C 153.833,170.5 153.167,170.5 152.5,170.5C 152.167,169.833 151.833,169.167 151.5,168.5 Z"/></g>
<g><path style="opacity:1" fill="#29c194" d="M 80.5,168.5 C 80.8333,168.5 81.1667,168.5 81.5,168.5C 80.1667,170.167 78.8333,171.833 77.5,173.5C 77.1667,173.5 76.8333,173.5 76.5,173.5C 76.5,173.167 76.5,172.833 76.5,172.5C 77.5,170.833 78.8333,169.5 80.5,168.5 Z"/></g>
<g><path style="opacity:1" fill="#35ad90" d="M 237.5,169.5 C 237.573,171.027 236.906,172.027 235.5,172.5C 235.5,171.833 235.5,171.167 235.5,170.5C 236.167,170.167 236.833,169.833 237.5,169.5 Z"/></g>
<g><path style="opacity:1" fill="#4671bf" d="M 10.5,158.5 C 11.7281,159.306 12.7281,160.306 13.5,161.5C 13.5,161.833 13.5,162.167 13.5,162.5C 14.797,168.597 16.297,174.597 18,180.5C 19.7384,183.465 22.2384,185.465 25.5,186.5C 26.9348,187.913 27.9348,189.58 28.5,191.5C 28.6854,193.196 29.5187,194.529 31,195.5C 31.4935,197.134 31.6602,198.801 31.5,200.5C 34.0842,200.569 36.0842,201.735 37.5,204C 39.1341,204.494 40.8008,204.66 42.5,204.5C 42.5,205.167 42.5,205.833 42.5,206.5C 41.5533,209.62 42.8867,211.62 46.5,212.5C 46.5,213.833 46.5,215.167 46.5,216.5C 45.448,216.649 44.448,216.483 43.5,216C 38.6239,211.292 33.9573,206.459 29.5,201.5C 24.6855,194.71 20.3521,187.71 16.5,180.5C 17.0001,176.836 15.8334,173.836 13,171.5C 12.734,167.019 11.9007,162.686 10.5,158.5 Z"/></g>
<g><path style="opacity:1" fill="#1578be" d="M 79.5,167.5 C 79.8333,167.5 80.1667,167.5 80.5,167.5C 80.5,167.833 80.5,168.167 80.5,168.5C 78.8333,169.5 77.5,170.833 76.5,172.5C 73.5,173.5 71.5,175.5 70.5,178.5C 69.5,179.167 68.5,179.833 67.5,180.5C 70.0905,174.908 74.0905,170.574 79.5,167.5 Z"/></g>
<g><path style="opacity:1" fill="#36c068" d="M 154.5,170.5 C 157.442,171.304 160.109,172.638 162.5,174.5C 158.966,174.639 156.299,173.306 154.5,170.5 Z"/></g>
<g><path style="opacity:1" fill="#33c188" d="M 235.5,172.5 C 235.5,173.167 235.5,173.833 235.5,174.5C 234.833,174.833 234.167,175.167 233.5,175.5C 233.427,173.973 234.094,172.973 235.5,172.5 Z"/></g>
<g><path style="opacity:1" fill="#3d7aae" d="M 239.5,167.5 C 238.377,169.979 238.377,172.312 239.5,174.5C 239.34,176.153 238.674,177.486 237.5,178.5C 237.649,177.448 237.483,176.448 237,175.5C 235.097,177.441 234.264,179.774 234.5,182.5C 233.5,182.5 232.5,182.5 231.5,182.5C 232.167,180.833 232.833,179.167 233.5,177.5C 234.906,177.027 235.573,176.027 235.5,174.5C 235.5,173.833 235.5,173.167 235.5,172.5C 236.906,172.027 237.573,171.027 237.5,169.5C 237.5,169.167 237.5,168.833 237.5,168.5C 238.167,168.167 238.833,167.833 239.5,167.5 Z"/></g>
<g><path style="opacity:1" fill="#1d61fa" d="M 66.5,180.5 C 64.7376,181.262 63.7376,182.596 63.5,184.5C 60.1916,185.065 58.1916,187.065 57.5,190.5C 55.5,190.5 54.5,191.5 54.5,193.5C 54.1667,193.5 53.8333,193.5 53.5,193.5C 49.5,192.833 47.8333,194.5 48.5,198.5C 46.1837,199.422 44.517,201.089 43.5,203.5C 40.8129,203.659 38.4796,202.825 36.5,201C 33.9178,197.679 31.2511,194.513 28.5,191.5C 27.9348,189.58 26.9348,187.913 25.5,186.5C 25.5,185.833 25.5,185.167 25.5,184.5C 25.6427,182.738 25.3094,181.071 24.5,179.5C 26.813,178.727 29.1463,178.06 31.5,177.5C 39.1888,177.811 46.8554,177.811 54.5,177.5C 57.1312,177.321 59.4645,177.987 61.5,179.5C 63.3497,178.758 64.0164,177.758 63.5,176.5C 65.5499,177.077 66.5499,178.41 66.5,180.5 Z"/></g>
<g><path style="opacity:1" fill="#20a1a0" d="M 76.5,172.5 C 76.5,172.833 76.5,173.167 76.5,173.5C 74.5,174.833 72.8333,176.5 71.5,178.5C 71.1667,178.5 70.8333,178.5 70.5,178.5C 71.5,175.5 73.5,173.5 76.5,172.5 Z"/></g>
<g><path style="opacity:1" fill="#0c1e0b" d="M 179.5,167.5 C 182.092,169.036 183.092,171.369 182.5,174.5C 182.262,176.404 181.262,177.738 179.5,178.5C 177.265,178.795 175.265,178.461 173.5,177.5C 175.764,176.781 178.097,176.448 180.5,176.5C 180.519,174.94 180.852,173.44 181.5,172C 180.586,170.594 179.92,169.094 179.5,167.5 Z"/></g>
<g><path style="opacity:1" fill="#309f94" d="M 235.5,174.5 C 235.573,176.027 234.906,177.027 233.5,177.5C 233.5,176.833 233.5,176.167 233.5,175.5C 234.167,175.167 234.833,174.833 235.5,174.5 Z"/></g>
<g><path style="opacity:1" fill="#38b062" d="M 183.5,170.5 C 185.581,174.982 184.248,177.982 179.5,179.5C 179.5,179.167 179.5,178.833 179.5,178.5C 181.262,177.738 182.262,176.404 182.5,174.5C 183.434,173.432 183.768,172.099 183.5,170.5 Z"/></g>
<g><path style="opacity:1" fill="#36b964" d="M 163.5,174.5 C 168.301,177.902 173.634,179.568 179.5,179.5C 174.286,181.051 169.286,180.217 164.5,177C 163.748,176.329 163.414,175.496 163.5,174.5 Z"/></g>
<g><path style="opacity:1" fill="#3f72d1" d="M 13.5,162.5 C 16.3061,169.446 19.6394,176.112 23.5,182.5C 24.1667,183.167 24.8333,183.833 25.5,184.5C 25.5,185.167 25.5,185.833 25.5,186.5C 22.2384,185.465 19.7384,183.465 18,180.5C 16.297,174.597 14.797,168.597 13.5,162.5 Z"/></g>
<g><path style="opacity:1" fill="#147bbc" d="M 66.5,180.5 C 66.8333,180.5 67.1667,180.5 67.5,180.5C 66.5,182.167 65.1667,183.5 63.5,184.5C 63.7376,182.596 64.7376,181.262 66.5,180.5 Z"/></g>
<g><path style="opacity:1" fill="#24d372" d="M 76.5,173.5 C 76.8333,173.5 77.1667,173.5 77.5,173.5C 76.2073,175.296 74.7073,176.963 73,178.5C 72.8047,180.207 72.8047,181.874 73,183.5C 71.9505,182.483 70.7839,182.316 69.5,183C 66.2168,188.122 61.8834,191.956 56.5,194.5C 61.4721,189.193 66.4721,183.86 71.5,178.5C 72.8333,176.5 74.5,174.833 76.5,173.5 Z"/></g>
<g><path style="opacity:1" fill="#339796" d="M 231.5,182.5 C 231.573,184.027 230.906,185.027 229.5,185.5C 229.427,183.973 230.094,182.973 231.5,182.5 Z"/></g>
<g><path style="opacity:1" fill="#29b499" d="M 70.5,178.5 C 70.8333,178.5 71.1667,178.5 71.5,178.5C 66.4721,183.86 61.4721,189.193 56.5,194.5C 56.1667,194.5 55.8333,194.5 55.5,194.5C 55.5,194.167 55.5,193.833 55.5,193.5C 56.1667,192.5 56.8333,191.5 57.5,190.5C 59.5,188.5 61.5,186.5 63.5,184.5C 65.1667,183.5 66.5,182.167 67.5,180.5C 68.5,179.833 69.5,179.167 70.5,178.5 Z"/></g>
<g><path style="opacity:1" fill="#2fc97b" d="M 233.5,175.5 C 233.5,176.167 233.5,176.833 233.5,177.5C 232.833,179.167 232.167,180.833 231.5,182.5C 230.094,182.973 229.427,183.973 229.5,185.5C 228.094,185.973 227.427,186.973 227.5,188.5C 226.094,188.973 225.427,189.973 225.5,191.5C 225.167,191.5 224.833,191.5 224.5,191.5C 225.275,188.2 226.775,185.2 229,182.5C 229.494,180.866 229.66,179.199 229.5,177.5C 231.199,177.473 232.533,176.806 233.5,175.5 Z"/></g>
<g><path style="opacity:1" fill="#309a91" d="M 229.5,185.5 C 229.573,187.027 228.906,188.027 227.5,188.5C 227.427,186.973 228.094,185.973 229.5,185.5 Z"/></g>
<g><path style="opacity:1" fill="#1475b8" d="M 63.5,184.5 C 61.5,186.5 59.5,188.5 57.5,190.5C 58.1916,187.065 60.1916,185.065 63.5,184.5 Z"/></g>
<g><path style="opacity:1" fill="#34a28e" d="M 227.5,188.5 C 227.5,189.167 227.5,189.833 227.5,190.5C 226.833,190.833 226.167,191.167 225.5,191.5C 225.427,189.973 226.094,188.973 227.5,188.5 Z"/></g>
<g><path style="opacity:0.988" fill="#3f577f" d="M 12.5,173.5 C 13.1036,176.218 14.437,178.551 16.5,180.5C 20.3521,187.71 24.6855,194.71 29.5,201.5C 33.9573,206.459 38.6239,211.292 43.5,216C 44.448,216.483 45.448,216.649 46.5,216.5C 48.1464,219.81 50.4797,222.477 53.5,224.5C 35.2733,212.607 21.2733,196.94 11.5,177.5C 12.4345,176.432 12.7678,175.099 12.5,173.5 Z"/></g>
<g><path style="opacity:1" fill="#1577ba" d="M 57.5,190.5 C 56.8333,191.5 56.1667,192.5 55.5,193.5C 55.1667,193.5 54.8333,193.5 54.5,193.5C 54.5,191.5 55.5,190.5 57.5,190.5 Z"/></g>
<g><path style="opacity:1" fill="#1767e5" d="M 53.5,193.5 C 52.1667,195.5 50.5,197.167 48.5,198.5C 47.8333,194.5 49.5,192.833 53.5,193.5 Z"/></g>
<g><path style="opacity:1" fill="#3283a6" d="M 227.5,190.5 C 226.92,192.749 225.587,194.415 223.5,195.5C 223.733,193.938 224.4,192.605 225.5,191.5C 226.167,191.167 226.833,190.833 227.5,190.5 Z"/></g>
<g><path style="opacity:1" fill="#4574ba" d="M 237.5,178.5 C 226.271,200.396 209.938,217.396 188.5,229.5C 189.833,227.833 191.167,226.167 192.5,224.5C 194.027,224.573 195.027,223.906 195.5,222.5C 206.788,215.545 216.121,206.545 223.5,195.5C 225.587,194.415 226.92,192.749 227.5,190.5C 227.5,189.833 227.5,189.167 227.5,188.5C 228.906,188.027 229.573,187.027 229.5,185.5C 230.906,185.027 231.573,184.027 231.5,182.5C 232.5,182.5 233.5,182.5 234.5,182.5C 234.264,179.774 235.097,177.441 237,175.5C 237.483,176.448 237.649,177.448 237.5,178.5 Z"/></g>
<g><path style="opacity:1" fill="#1b91a6" d="M 53.5,193.5 C 53.8333,193.5 54.1667,193.5 54.5,193.5C 54.8333,193.5 55.1667,193.5 55.5,193.5C 55.5,193.833 55.5,194.167 55.5,194.5C 52.5,196.833 49.8333,199.5 47.5,202.5C 47.1667,202.5 46.8333,202.5 46.5,202.5C 46.7329,200.938 47.3995,199.605 48.5,198.5C 50.5,197.167 52.1667,195.5 53.5,193.5 Z"/></g>
<g><path style="opacity:1" fill="#31bc8c" d="M 224.5,191.5 C 224.833,191.5 225.167,191.5 225.5,191.5C 224.4,192.605 223.733,193.938 223.5,195.5C 217.86,201.806 211.86,207.806 205.5,213.5C 211.84,206.161 218.173,198.828 224.5,191.5 Z"/></g>
<g><path style="opacity:1" fill="#3a6fd9" d="M 28.5,191.5 C 31.2511,194.513 33.9178,197.679 36.5,201C 38.4796,202.825 40.8129,203.659 43.5,203.5C 43.5,203.833 43.5,204.167 43.5,204.5C 43.1667,204.5 42.8333,204.5 42.5,204.5C 40.8008,204.66 39.1341,204.494 37.5,204C 36.0842,201.735 34.0842,200.569 31.5,200.5C 31.6602,198.801 31.4935,197.134 31,195.5C 29.5187,194.529 28.6854,193.196 28.5,191.5 Z"/></g>
<g><path style="opacity:1" fill="#1371bf" d="M 48.5,198.5 C 47.3995,199.605 46.7329,200.938 46.5,202.5C 45.5,203.167 44.5,203.833 43.5,204.5C 43.5,204.167 43.5,203.833 43.5,203.5C 44.517,201.089 46.1837,199.422 48.5,198.5 Z"/></g>
<g><path style="opacity:1" fill="#2acf7d" d="M 55.5,194.5 C 55.8333,194.5 56.1667,194.5 56.5,194.5C 54.205,197.297 51.705,199.964 49,202.5C 48.5078,203.549 48.6744,204.549 49.5,205.5C 47.8333,206.167 46.1667,206.833 44.5,207.5C 45.1272,208.417 45.4606,209.417 45.5,210.5C 44.5,210.167 43.8333,209.5 43.5,208.5C 44.203,206.127 45.5363,204.127 47.5,202.5C 49.8333,199.5 52.5,196.833 55.5,194.5 Z"/></g>
<g><path style="opacity:1" fill="#4398a4" d="M 42.5,206.5 C 42.3284,207.492 42.6618,208.158 43.5,208.5C 43.8333,209.5 44.5,210.167 45.5,210.5C 45.8333,211.167 46.1667,211.833 46.5,212.5C 42.8867,211.62 41.5533,209.62 42.5,206.5 Z"/></g>
<g><path style="opacity:1" fill="#38afa0" d="M 46.5,202.5 C 46.8333,202.5 47.1667,202.5 47.5,202.5C 45.5363,204.127 44.203,206.127 43.5,208.5C 42.6618,208.158 42.3284,207.492 42.5,206.5C 42.5,205.833 42.5,205.167 42.5,204.5C 42.8333,204.5 43.1667,204.5 43.5,204.5C 44.5,203.833 45.5,203.167 46.5,202.5 Z"/></g>
<g><path style="opacity:1" fill="#39c087" d="M 45.5,210.5 C 47.4113,211.075 49.078,212.075 50.5,213.5C 50.8333,214.167 51.1667,214.833 51.5,215.5C 51.1667,215.5 50.8333,215.5 50.5,215.5C 49.1667,214.5 47.8333,213.5 46.5,212.5C 46.1667,211.833 45.8333,211.167 45.5,210.5 Z"/></g>
<g><path style="opacity:1" fill="#338ba1" d="M 223.5,195.5 C 216.121,206.545 206.788,215.545 195.5,222.5C 195.833,221.833 196.167,221.167 196.5,220.5C 199.81,218.518 202.81,216.185 205.5,213.5C 211.86,207.806 217.86,201.806 223.5,195.5 Z"/></g>
<g><path style="opacity:1" fill="#23d56c" d="M 65.5,223.5 C 64.5,223.5 63.5,223.5 62.5,223.5C 61.609,222.89 60.609,222.557 59.5,222.5C 59.0269,221.094 58.0269,220.427 56.5,220.5C 55.1667,218.5 53.5,216.833 51.5,215.5C 51.1667,214.833 50.8333,214.167 50.5,213.5C 52.1238,213.64 53.2904,212.973 54,211.5C 55.7506,213.49 56.7506,215.823 57,218.5C 58.0113,219.337 59.1779,219.67 60.5,219.5C 60.5,218.5 60.5,217.5 60.5,216.5C 62.7159,216.275 64.3826,217.108 65.5,219C 61.5521,220.686 61.5521,222.186 65.5,223.5 Z"/></g>
<g><path style="opacity:1" fill="#3aaa9b" d="M 50.5,215.5 C 50.8333,215.5 51.1667,215.5 51.5,215.5C 53.5,216.833 55.1667,218.5 56.5,220.5C 53.9108,219.581 51.9108,217.914 50.5,215.5 Z"/></g>
<g><path style="opacity:1" fill="#4373b1" d="M 46.5,212.5 C 47.8333,213.5 49.1667,214.5 50.5,215.5C 51.9108,217.914 53.9108,219.581 56.5,220.5C 56.9731,221.906 57.9731,222.573 59.5,222.5C 59.9731,223.906 60.9731,224.573 62.5,224.5C 62.5,225.833 63.1667,226.5 64.5,226.5C 65.2623,228.262 66.5956,229.262 68.5,229.5C 69.1667,229.5 69.8333,229.5 70.5,229.5C 71.6594,231.25 73.326,232.25 75.5,232.5C 76.1667,232.5 76.8333,232.5 77.5,232.5C 77.9731,233.906 78.9731,234.573 80.5,234.5C 80.8333,234.5 81.1667,234.5 81.5,234.5C 83.0725,235.687 84.7392,236.687 86.5,237.5C 84.8008,237.34 83.1341,237.506 81.5,238C 82.056,238.383 82.3893,238.883 82.5,239.5C 71.789,236.313 62.1223,231.313 53.5,224.5C 50.4797,222.477 48.1464,219.81 46.5,216.5C 46.5,215.167 46.5,213.833 46.5,212.5 Z"/></g>
<g><path style="opacity:1" fill="#2eca7c" d="M 205.5,213.5 C 202.81,216.185 199.81,218.518 196.5,220.5C 194.973,220.427 193.973,221.094 193.5,222.5C 193.167,223.167 192.833,223.833 192.5,224.5C 191.833,224.5 191.167,224.5 190.5,224.5C 190.167,224.5 189.833,224.5 189.5,224.5C 191.69,223.626 192.69,221.959 192.5,219.5C 193.873,219.657 195.207,219.49 196.5,219C 196.167,218.667 195.833,218.333 195.5,218C 198.965,216.677 202.299,215.177 205.5,213.5 Z"/></g>
<g><path style="opacity:1" fill="#3ead94" d="M 56.5,220.5 C 58.0269,220.427 59.0269,221.094 59.5,222.5C 57.9731,222.573 56.9731,221.906 56.5,220.5 Z"/></g>
<g><path style="opacity:1" fill="#30b38c" d="M 196.5,220.5 C 196.167,221.167 195.833,221.833 195.5,222.5C 194.833,222.5 194.167,222.5 193.5,222.5C 193.973,221.094 194.973,220.427 196.5,220.5 Z"/></g>
<g><path style="opacity:1" fill="#34b293" d="M 59.5,222.5 C 60.609,222.557 61.609,222.89 62.5,223.5C 62.5,223.833 62.5,224.167 62.5,224.5C 60.9731,224.573 59.9731,223.906 59.5,222.5 Z"/></g>
<g><path style="opacity:1" fill="#2c8ba1" d="M 193.5,222.5 C 194.167,222.5 194.833,222.5 195.5,222.5C 195.027,223.906 194.027,224.573 192.5,224.5C 192.833,223.833 193.167,223.167 193.5,222.5 Z"/></g>
<g><path style="opacity:1" fill="#38999b" d="M 62.5,224.5 C 63.8333,224.5 64.5,225.167 64.5,226.5C 64.5,225.167 63.8333,224.5 62.5,224.5 Z"/></g>
<g><path style="opacity:1" fill="#35c283" d="M 62.5,224.5 C 62.5,224.167 62.5,223.833 62.5,223.5C 63.5,223.5 64.5,223.5 65.5,223.5C 68.0196,225.263 70.3529,227.263 72.5,229.5C 71.8333,229.5 71.1667,229.5 70.5,229.5C 69.8333,229.5 69.1667,229.5 68.5,229.5C 67.7377,227.738 66.4044,226.738 64.5,226.5C 64.5,225.167 63.8333,224.5 62.5,224.5 Z"/></g>
<g><path style="opacity:1" fill="#36899e" d="M 64.5,226.5 C 66.4044,226.738 67.7377,227.738 68.5,229.5C 66.5956,229.262 65.2623,228.262 64.5,226.5 Z"/></g>
<g><path style="opacity:1" fill="#30a991" d="M 189.5,224.5 C 189.833,224.5 190.167,224.5 190.5,224.5C 189.198,226.822 187.198,228.155 184.5,228.5C 185.945,226.937 187.611,225.604 189.5,224.5 Z"/></g>
<g><path style="opacity:1" fill="#3580ab" d="M 190.5,224.5 C 191.167,224.5 191.833,224.5 192.5,224.5C 191.167,226.167 189.833,227.833 188.5,229.5C 186.784,229.629 185.117,229.962 183.5,230.5C 183.833,229.833 184.167,229.167 184.5,228.5C 187.198,228.155 189.198,226.822 190.5,224.5 Z"/></g>
<g><path style="opacity:1" fill="#349e99" d="M 184.5,228.5 C 184.167,229.167 183.833,229.833 183.5,230.5C 182.833,230.5 182.167,230.5 181.5,230.5C 181.973,229.094 182.973,228.427 184.5,228.5 Z"/></g>
<g><path style="opacity:1" fill="#309d99" d="M 70.5,229.5 C 71.1667,229.5 71.8333,229.5 72.5,229.5C 73.9002,230.1 74.9002,231.1 75.5,232.5C 73.326,232.25 71.6594,231.25 70.5,229.5 Z"/></g>
<g><path style="opacity:1" fill="#2fc57e" d="M 72.5,229.5 C 75.4815,229.182 77.8148,230.182 79.5,232.5C 78.8333,232.5 78.1667,232.5 77.5,232.5C 76.8333,232.5 76.1667,232.5 75.5,232.5C 74.9002,231.1 73.9002,230.1 72.5,229.5 Z"/></g>
<g><path style="opacity:1" fill="#31bd89" d="M 178.5,230.5 C 178.167,231.167 177.833,231.833 177.5,232.5C 175.833,233.167 174.167,233.833 172.5,234.5C 173.802,232.178 175.802,230.845 178.5,230.5 Z"/></g>
<g><path style="opacity:1" fill="#339c9d" d="M 178.5,230.5 C 179.167,230.5 179.833,230.5 180.5,230.5C 180.027,231.906 179.027,232.573 177.5,232.5C 177.833,231.833 178.167,231.167 178.5,230.5 Z"/></g>
<g><path style="opacity:0.896" fill="#4474bc" d="M 188.5,229.5 C 182.207,234.145 175.207,237.478 167.5,239.5C 167.5,238.833 167.5,238.167 167.5,237.5C 171.684,237.408 175.017,235.741 177.5,232.5C 179.027,232.573 180.027,231.906 180.5,230.5C 180.833,230.5 181.167,230.5 181.5,230.5C 182.167,230.5 182.833,230.5 183.5,230.5C 185.117,229.962 186.784,229.629 188.5,229.5 Z"/></g>
<g><path style="opacity:1" fill="#35a795" d="M 77.5,232.5 C 78.1667,232.5 78.8333,232.5 79.5,232.5C 79.8333,233.167 80.1667,233.833 80.5,234.5C 78.9731,234.573 77.9731,233.906 77.5,232.5 Z"/></g>
<g><path style="opacity:1" fill="#37ab95" d="M 81.5,234.5 C 83.5648,234.517 85.5648,234.85 87.5,235.5C 89.2608,236.313 90.9275,237.313 92.5,238.5C 90.4352,238.483 88.4352,238.15 86.5,237.5C 84.7392,236.687 83.0725,235.687 81.5,234.5 Z"/></g>
<g><path style="opacity:1" fill="#397fad" d="M 177.5,232.5 C 175.017,235.741 171.684,237.408 167.5,237.5C 168.833,236.5 170.167,235.5 171.5,234.5C 171.833,234.5 172.167,234.5 172.5,234.5C 174.167,233.833 175.833,233.167 177.5,232.5 Z"/></g>
<g><path style="opacity:1" fill="#23d66a" d="M 87.5,235.5 C 95.0583,237.036 102.725,237.87 110.5,238C 115.19,239.307 119.856,240.474 124.5,241.5C 117.852,240.861 111.186,240.527 104.5,240.5C 103.5,240.5 102.5,240.5 101.5,240.5C 99.4855,239.076 97.1522,238.41 94.5,238.5C 93.8333,238.5 93.1667,238.5 92.5,238.5C 90.9275,237.313 89.2608,236.313 87.5,235.5 Z"/></g>
<g><path style="opacity:1" fill="#38b98b" d="M 94.5,238.5 C 97.1522,238.41 99.4855,239.076 101.5,240.5C 98.8478,240.59 96.5145,239.924 94.5,238.5 Z"/></g>
<g><path style="opacity:1" fill="#33a796" d="M 171.5,234.5 C 170.167,235.5 168.833,236.5 167.5,237.5C 162.548,238.813 157.548,239.813 152.5,240.5C 152.5,240.167 152.5,239.833 152.5,239.5C 158.985,238.296 165.319,236.629 171.5,234.5 Z"/></g>
<g><path style="opacity:1" fill="#4574b9" d="M 86.5,237.5 C 88.4352,238.15 90.4352,238.483 92.5,238.5C 93.347,239.966 94.6803,240.8 96.5,241C 99.4781,241.696 102.478,242.196 105.5,242.5C 107.903,242.448 110.236,242.781 112.5,243.5C 116.82,244.166 121.32,244.499 126,244.5C 133.391,244.636 140.557,243.969 147.5,242.5C 148.167,242.5 148.833,242.5 149.5,242.5C 155.546,241.757 161.546,240.757 167.5,239.5C 158.719,242.722 149.719,245.056 140.5,246.5C 130.167,246.5 119.833,246.5 109.5,246.5C 100.281,245.056 91.2815,242.722 82.5,239.5C 82.3893,238.883 82.056,238.383 81.5,238C 83.1341,237.506 84.8008,237.34 86.5,237.5 Z"/></g>
<g><path style="opacity:1" fill="#397ead" d="M 167.5,237.5 C 167.5,238.167 167.5,238.833 167.5,239.5C 161.546,240.757 155.546,241.757 149.5,242.5C 150.167,241.833 150.833,241.167 151.5,240.5C 151.833,240.5 152.167,240.5 152.5,240.5C 157.548,239.813 162.548,238.813 167.5,237.5 Z"/></g>
<g><path style="opacity:1" fill="#388fa1" d="M 92.5,238.5 C 93.1667,238.5 93.8333,238.5 94.5,238.5C 96.5145,239.924 98.8478,240.59 101.5,240.5C 102.5,240.5 103.5,240.5 104.5,240.5C 104.5,241.167 104.833,241.5 105.5,241.5C 105.5,241.833 105.5,242.167 105.5,242.5C 102.478,242.196 99.4781,241.696 96.5,241C 94.6803,240.8 93.347,239.966 92.5,238.5 Z"/></g>
<g><path style="opacity:1" fill="#2ecb7b" d="M 152.5,239.5 C 152.5,239.833 152.5,240.167 152.5,240.5C 152.167,240.5 151.833,240.5 151.5,240.5C 149.102,240.259 147.102,240.926 145.5,242.5C 143.167,242.5 140.833,242.5 138.5,242.5C 127.486,242.543 116.486,242.209 105.5,241.5C 104.833,241.5 104.5,241.167 104.5,240.5C 111.186,240.527 117.852,240.861 124.5,241.5C 133.918,241.583 143.252,240.917 152.5,239.5 Z"/></g>
<g><path style="opacity:1" fill="#32a094" d="M 151.5,240.5 C 150.833,241.167 150.167,241.833 149.5,242.5C 148.833,242.5 148.167,242.5 147.5,242.5C 146.833,242.5 146.167,242.5 145.5,242.5C 147.102,240.926 149.102,240.259 151.5,240.5 Z"/></g>
<g><path style="opacity:1" fill="#3daf95" d="M 105.5,242.5 C 105.5,242.167 105.5,241.833 105.5,241.5C 116.486,242.209 127.486,242.543 138.5,242.5C 130.016,243.493 121.349,243.826 112.5,243.5C 110.236,242.781 107.903,242.448 105.5,242.5 Z"/></g>
<g><path style="opacity:1" fill="#3785a0" d="M 138.5,242.5 C 140.833,242.5 143.167,242.5 145.5,242.5C 146.167,242.5 146.833,242.5 147.5,242.5C 140.557,243.969 133.391,244.636 126,244.5C 121.32,244.499 116.82,244.166 112.5,243.5C 121.349,243.826 130.016,243.493 138.5,242.5 Z"/></g>
</svg>
